<?xml version="1.0" standalone="no"?>
 <!DOCTYPE svg PUBLIC "-//W3C//DTD SVG 1.1//EN" 
 "http://www.w3.org/Graphics/SVG/1.1/DTD/svg11.dtd"> 
<svg
  xmlns:svg="http://www.w3.org/2000/svg"
  xmlns="http://www.w3.org/2000/svg"
  xmlns:xlink="http://www.w3.org/1999/xlink"
  xmlns:inkscape="http://www.inkscape.org/namespaces/inkscape"
  version="1.1"
  width="94.9960mm" height="94.9960mm" viewBox="0.0000 0.0000 94.9960 94.9960">
<title>SVG Image created as v0p6_bottom.svg date 2026-05-24T17:43:14 </title>
  <desc>Image generated by PCBNEW </desc>
<g style="fill:#000000; fill-opacity:1.0000;stroke:#000000; stroke-opacity:1.0000;
stroke-linecap:round; stroke-linejoin:round;"
 transform="translate(0 0) scale(1 1)">
<path style="fill:#4D7FC4; fill-opacity:1.0000; stroke:none;fill-rule:evenodd;"
d="M 77.4960,23.8850
77.4809,23.7156
77.4275,23.5289
77.3376,23.3567
77.2148,23.2062
77.0643,23.0834
76.8921,22.9935
76.7054,22.9401
76.5360,22.9250
70.4560,22.9250
70.2866,22.9401
70.0999,22.9935
69.9277,23.0834
69.7772,23.2062
69.6544,23.3567
69.5645,23.5289
69.5111,23.7156
69.4960,23.8850
69.4960,29.9650
69.5111,30.1344
69.5645,30.3211
69.6544,30.4933
69.7772,30.6438
69.9277,30.7666
70.0999,30.8565
70.2866,30.9099
70.4560,30.9250
76.5360,30.9250
76.7054,30.9099
76.8921,30.8565
77.0643,30.7666
77.2148,30.6438
77.3376,30.4933
77.4275,30.3211
77.4809,30.1344
77.4960,29.9650
Z" /> 
<path style="fill:#4D7FC4; fill-opacity:1.0000; stroke:none;fill-rule:evenodd;"
d="M 51.4960,23.8850
51.4809,23.7156
51.4275,23.5289
51.3376,23.3567
51.2148,23.2062
51.0643,23.0834
50.8921,22.9935
50.7054,22.9401
50.5360,22.9250
44.4560,22.9250
44.2866,22.9401
44.0999,22.9935
43.9277,23.0834
43.7772,23.2062
43.6544,23.3567
43.5645,23.5289
43.5111,23.7156
43.4960,23.8850
43.4960,29.9650
43.5111,30.1344
43.5645,30.3211
43.6544,30.4933
43.7772,30.6438
43.9277,30.7666
44.0999,30.8565
44.2866,30.9099
44.4560,30.9250
50.5360,30.9250
50.7054,30.9099
50.8921,30.8565
51.0643,30.7666
51.2148,30.6438
51.3376,30.4933
51.4275,30.3211
51.4809,30.1344
51.4960,29.9650
Z" /> 
<path style="fill:#4D7FC4; fill-opacity:1.0000; stroke:none;fill-rule:evenodd;"
d="M 25.4960,23.8850
25.4809,23.7156
25.4275,23.5289
25.3376,23.3567
25.2148,23.2062
25.0643,23.0834
24.8921,22.9935
24.7054,22.9401
24.5360,22.9250
18.4560,22.9250
18.2866,22.9401
18.0999,22.9935
17.9277,23.0834
17.7772,23.2062
17.6544,23.3567
17.5645,23.5289
17.5111,23.7156
17.4960,23.8850
17.4960,29.9650
17.5111,30.1344
17.5645,30.3211
17.6544,30.4933
17.7772,30.6438
17.9277,30.7666
18.0999,30.8565
18.2866,30.9099
18.4560,30.9250
24.5360,30.9250
24.7054,30.9099
24.8921,30.8565
25.0643,30.7666
25.2148,30.6438
25.3376,30.4933
25.4275,30.3211
25.4809,30.1344
25.4960,29.9650
Z" /> 
<path style="fill:#4D7FC4; fill-opacity:1.0000; stroke:none;fill-rule:evenodd;"
d="M 17.4960,71.1150
17.5111,71.2844
17.5645,71.4711
17.6544,71.6433
17.7772,71.7938
17.9277,71.9166
18.0999,72.0065
18.2866,72.0599
18.4560,72.0750
24.5360,72.0750
24.7054,72.0599
24.8921,72.0065
25.0643,71.9166
25.2148,71.7938
25.3376,71.6433
25.4275,71.4711
25.4809,71.2844
25.4960,71.1150
25.4960,65.0350
25.4809,64.8656
25.4275,64.6789
25.3376,64.5067
25.2148,64.3562
25.0643,64.2334
24.8921,64.1435
24.7054,64.0901
24.5360,64.0750
18.4560,64.0750
18.2866,64.0901
18.0999,64.1435
17.9277,64.2334
17.7772,64.3562
17.6544,64.5067
17.5645,64.6789
17.5111,64.8656
17.4960,65.0350
Z" /> 
<path style="fill:#4D7FC4; fill-opacity:1.0000; stroke:none;fill-rule:evenodd;"
d="M 43.4960,71.1150
43.5111,71.2844
43.5645,71.4711
43.6544,71.6433
43.7772,71.7938
43.9277,71.9166
44.0999,72.0065
44.2866,72.0599
44.4560,72.0750
50.5360,72.0750
50.7054,72.0599
50.8921,72.0065
51.0643,71.9166
51.2148,71.7938
51.3376,71.6433
51.4275,71.4711
51.4809,71.2844
51.4960,71.1150
51.4960,65.0350
51.4809,64.8656
51.4275,64.6789
51.3376,64.5067
51.2148,64.3562
51.0643,64.2334
50.8921,64.1435
50.7054,64.0901
50.5360,64.0750
44.4560,64.0750
44.2866,64.0901
44.0999,64.1435
43.9277,64.2334
43.7772,64.3562
43.6544,64.5067
43.5645,64.6789
43.5111,64.8656
43.4960,65.0350
Z" /> 
<path style="fill:#4D7FC4; fill-opacity:1.0000; stroke:none;fill-rule:evenodd;"
d="M 69.4960,71.1150
69.5111,71.2844
69.5645,71.4711
69.6544,71.6433
69.7772,71.7938
69.9277,71.9166
70.0999,72.0065
70.2866,72.0599
70.4560,72.0750
76.5360,72.0750
76.7054,72.0599
76.8921,72.0065
77.0643,71.9166
77.2148,71.7938
77.3376,71.6433
77.4275,71.4711
77.4809,71.2844
77.4960,71.1150
77.4960,65.0350
77.4809,64.8656
77.4275,64.6789
77.3376,64.5067
77.2148,64.3562
77.0643,64.2334
76.8921,64.1435
76.7054,64.0901
76.5360,64.0750
70.4560,64.0750
70.2866,64.0901
70.0999,64.1435
69.9277,64.2334
69.7772,64.3562
69.6544,64.5067
69.5645,64.6789
69.5111,64.8656
69.4960,65.0350
Z" /> 
</g>
<g style="fill:#4D7FC4; fill-opacity:1.0000; stroke:none;">
<circle cx="15.9960" cy="4.9250" r="0.5000" /> 
<circle cx="48.7460" cy="91.0000" r="0.5000" /> 
<circle cx="2.4960" cy="26.5000" r="0.5000" /> 
<circle cx="91.9960" cy="47.5000" r="0.5000" /> 
<circle cx="26.4960" cy="91.0000" r="0.5000" /> 
</g>
<g style="fill:none; 
stroke:#4D7FC4; stroke-width:1.2000; stroke-opacity:1; 
stroke-linecap:round; stroke-linejoin:round;">
<path d="M47.4960 68.0750
L47.4960 26.9250
" />
<path d="M73.4960 26.9250
L21.4960 26.9250
" />
<path d="M73.4960 68.0750
L21.4960 68.0750
" />
</g>
<g style="fill:none; 
stroke:#4D7FC4; stroke-width:0.8000; stroke-opacity:1; 
stroke-linecap:round; stroke-linejoin:round;">
<path d="M15.9960 4.9250
L2.4960 4.9250
" />
<path d="M2.4960 4.9250
L2.4960 91.0000
" />
<path d="M2.4960 91.0000
L48.7460 91.0000
" />
<path d="M91.9960 47.5000
L47.4960 47.5000
" />
<path style="fill:none; 
stroke:#D0D2CD; stroke-width:0.1000; stroke-opacity:1; 
stroke-linecap:round; stroke-linejoin:round;fill:none"
d="M 94.9960,0.0000
-0.0040,0.0000
-0.0040,95.0000
94.9960,95.0000
Z" /> 
</g>
<g style="fill:none; 
stroke:#C2C2C2; stroke-width:0.1500; stroke-opacity:1; 
stroke-linecap:round; stroke-linejoin:round;">
<path d="M87.4960 47.5000
L7.4960 47.5000
" />
<path style="fill:none; 
stroke:#C2C2C2; stroke-width:0.1200; stroke-opacity:1; 
stroke-linecap:round; stroke-linejoin:round;fill:none"
d="M 87.5710,13.3500
81.0710,6.8500
13.9210,6.8500
7.4210,13.3500
7.4210,40.5000
13.9210,47.0000
81.0710,47.0000
87.5710,40.5000
Z" /> 
<path style="fill:none; 
stroke:#C2C2C2; stroke-width:0.1200; stroke-opacity:1; 
stroke-linecap:round; stroke-linejoin:round;fill:none"
d="M 7.4210,81.6500
13.9210,88.1500
81.0710,88.1500
87.5710,81.6500
87.5710,54.5000
81.0710,48.0000
13.9210,48.0000
7.4210,54.5000
Z" /> 
</g>
<g style="fill:#FFFFFF; fill-opacity:1.0000; stroke:none;">
<circle cx="15.9960" cy="4.9250" r="0.2500" /> 
<circle cx="48.7460" cy="91.0000" r="0.2500" /> 
<circle cx="2.4960" cy="26.5000" r="0.2500" /> 
<circle cx="91.9960" cy="47.5000" r="0.2500" /> 
<circle cx="26.4960" cy="91.0000" r="0.2500" /> 
</g>
<g style="fill:#000000; fill-opacity:1.0000; stroke:none;">
<circle cx="89.9960" cy="5.0000" r="1.6000" /> 
<circle cx="4.9960" cy="5.0000" r="1.6000" /> 
<circle cx="89.9960" cy="90.0000" r="1.6000" /> 
<circle cx="4.9960" cy="90.0000" r="1.6000" /> 
</g> 
</svg>
