%TF.GenerationSoftware,KiCad,Pcbnew,10.0.3*%
%TF.CreationDate,2026-05-28T18:34:06+01:00*%
%TF.ProjectId,ICARUS_1U_Solar_Panel_PCB_v0p7,49434152-5553-45f3-9155-5f536f6c6172,0.7*%
%TF.SameCoordinates,Original*%
%TF.FileFunction,AssemblyDrawing,Top*%
%FSLAX46Y46*%
G04 Gerber Fmt 4.6, Leading zero omitted, Abs format (unit mm)*
G04 Created by KiCad (PCBNEW 10.0.3) date 2026-05-28 18:34:06*
%MOMM*%
%LPD*%
G01*
G04 APERTURE LIST*
%ADD10C,0.120000*%
%ADD11C,0.100000*%
%ADD12C,0.080000*%
%ADD13C,0.150000*%
G04 APERTURE END LIST*
D10*
X93160711Y-108990724D02*
X93589283Y-108990724D01*
X93374997Y-109740724D02*
X93374997Y-108990724D01*
X94053569Y-108990724D02*
X94053569Y-109526438D01*
X94053569Y-109526438D02*
X94017854Y-109633581D01*
X94017854Y-109633581D02*
X93946426Y-109705010D01*
X93946426Y-109705010D02*
X93839283Y-109740724D01*
X93839283Y-109740724D02*
X93767854Y-109740724D01*
X94339283Y-108990724D02*
X94803569Y-108990724D01*
X94803569Y-108990724D02*
X94553569Y-109276438D01*
X94553569Y-109276438D02*
X94660712Y-109276438D01*
X94660712Y-109276438D02*
X94732141Y-109312152D01*
X94732141Y-109312152D02*
X94767855Y-109347867D01*
X94767855Y-109347867D02*
X94803569Y-109419295D01*
X94803569Y-109419295D02*
X94803569Y-109597867D01*
X94803569Y-109597867D02*
X94767855Y-109669295D01*
X94767855Y-109669295D02*
X94732141Y-109705010D01*
X94732141Y-109705010D02*
X94660712Y-109740724D01*
X94660712Y-109740724D02*
X94446426Y-109740724D01*
X94446426Y-109740724D02*
X94374998Y-109705010D01*
X94374998Y-109705010D02*
X94339283Y-109669295D01*
X95053569Y-109740724D02*
X95446427Y-109240724D01*
X95053569Y-109240724D02*
X95446427Y-109740724D01*
X95696427Y-109705010D02*
X95803570Y-109740724D01*
X95803570Y-109740724D02*
X95982141Y-109740724D01*
X95982141Y-109740724D02*
X96053570Y-109705010D01*
X96053570Y-109705010D02*
X96089284Y-109669295D01*
X96089284Y-109669295D02*
X96124998Y-109597867D01*
X96124998Y-109597867D02*
X96124998Y-109526438D01*
X96124998Y-109526438D02*
X96089284Y-109455010D01*
X96089284Y-109455010D02*
X96053570Y-109419295D01*
X96053570Y-109419295D02*
X95982141Y-109383581D01*
X95982141Y-109383581D02*
X95839284Y-109347867D01*
X95839284Y-109347867D02*
X95767855Y-109312152D01*
X95767855Y-109312152D02*
X95732141Y-109276438D01*
X95732141Y-109276438D02*
X95696427Y-109205010D01*
X95696427Y-109205010D02*
X95696427Y-109133581D01*
X95696427Y-109133581D02*
X95732141Y-109062152D01*
X95732141Y-109062152D02*
X95767855Y-109026438D01*
X95767855Y-109026438D02*
X95839284Y-108990724D01*
X95839284Y-108990724D02*
X96017855Y-108990724D01*
X96017855Y-108990724D02*
X96124998Y-109026438D01*
X96874998Y-109669295D02*
X96839284Y-109705010D01*
X96839284Y-109705010D02*
X96732141Y-109740724D01*
X96732141Y-109740724D02*
X96660713Y-109740724D01*
X96660713Y-109740724D02*
X96553570Y-109705010D01*
X96553570Y-109705010D02*
X96482141Y-109633581D01*
X96482141Y-109633581D02*
X96446427Y-109562152D01*
X96446427Y-109562152D02*
X96410713Y-109419295D01*
X96410713Y-109419295D02*
X96410713Y-109312152D01*
X96410713Y-109312152D02*
X96446427Y-109169295D01*
X96446427Y-109169295D02*
X96482141Y-109097867D01*
X96482141Y-109097867D02*
X96553570Y-109026438D01*
X96553570Y-109026438D02*
X96660713Y-108990724D01*
X96660713Y-108990724D02*
X96732141Y-108990724D01*
X96732141Y-108990724D02*
X96839284Y-109026438D01*
X96839284Y-109026438D02*
X96874998Y-109062152D01*
X97160713Y-109526438D02*
X97517856Y-109526438D01*
X97089284Y-109740724D02*
X97339284Y-108990724D01*
X97339284Y-108990724D02*
X97589284Y-109740724D01*
X97839284Y-109455010D02*
X98410713Y-109455010D01*
X99089284Y-109240724D02*
X99089284Y-109740724D01*
X98910712Y-108955010D02*
X98732141Y-109490724D01*
X98732141Y-109490724D02*
X99196426Y-109490724D01*
X99624998Y-108990724D02*
X99696427Y-108990724D01*
X99696427Y-108990724D02*
X99767855Y-109026438D01*
X99767855Y-109026438D02*
X99803570Y-109062152D01*
X99803570Y-109062152D02*
X99839284Y-109133581D01*
X99839284Y-109133581D02*
X99874998Y-109276438D01*
X99874998Y-109276438D02*
X99874998Y-109455010D01*
X99874998Y-109455010D02*
X99839284Y-109597867D01*
X99839284Y-109597867D02*
X99803570Y-109669295D01*
X99803570Y-109669295D02*
X99767855Y-109705010D01*
X99767855Y-109705010D02*
X99696427Y-109740724D01*
X99696427Y-109740724D02*
X99624998Y-109740724D01*
X99624998Y-109740724D02*
X99553570Y-109705010D01*
X99553570Y-109705010D02*
X99517855Y-109669295D01*
X99517855Y-109669295D02*
X99482141Y-109597867D01*
X99482141Y-109597867D02*
X99446427Y-109455010D01*
X99446427Y-109455010D02*
X99446427Y-109276438D01*
X99446427Y-109276438D02*
X99482141Y-109133581D01*
X99482141Y-109133581D02*
X99517855Y-109062152D01*
X99517855Y-109062152D02*
X99553570Y-109026438D01*
X99553570Y-109026438D02*
X99624998Y-108990724D01*
X100303570Y-109312152D02*
X100232141Y-109276438D01*
X100232141Y-109276438D02*
X100196427Y-109240724D01*
X100196427Y-109240724D02*
X100160713Y-109169295D01*
X100160713Y-109169295D02*
X100160713Y-109133581D01*
X100160713Y-109133581D02*
X100196427Y-109062152D01*
X100196427Y-109062152D02*
X100232141Y-109026438D01*
X100232141Y-109026438D02*
X100303570Y-108990724D01*
X100303570Y-108990724D02*
X100446427Y-108990724D01*
X100446427Y-108990724D02*
X100517856Y-109026438D01*
X100517856Y-109026438D02*
X100553570Y-109062152D01*
X100553570Y-109062152D02*
X100589284Y-109133581D01*
X100589284Y-109133581D02*
X100589284Y-109169295D01*
X100589284Y-109169295D02*
X100553570Y-109240724D01*
X100553570Y-109240724D02*
X100517856Y-109276438D01*
X100517856Y-109276438D02*
X100446427Y-109312152D01*
X100446427Y-109312152D02*
X100303570Y-109312152D01*
X100303570Y-109312152D02*
X100232141Y-109347867D01*
X100232141Y-109347867D02*
X100196427Y-109383581D01*
X100196427Y-109383581D02*
X100160713Y-109455010D01*
X100160713Y-109455010D02*
X100160713Y-109597867D01*
X100160713Y-109597867D02*
X100196427Y-109669295D01*
X100196427Y-109669295D02*
X100232141Y-109705010D01*
X100232141Y-109705010D02*
X100303570Y-109740724D01*
X100303570Y-109740724D02*
X100446427Y-109740724D01*
X100446427Y-109740724D02*
X100517856Y-109705010D01*
X100517856Y-109705010D02*
X100553570Y-109669295D01*
X100553570Y-109669295D02*
X100589284Y-109597867D01*
X100589284Y-109597867D02*
X100589284Y-109455010D01*
X100589284Y-109455010D02*
X100553570Y-109383581D01*
X100553570Y-109383581D02*
X100517856Y-109347867D01*
X100517856Y-109347867D02*
X100446427Y-109312152D01*
X101053570Y-108990724D02*
X101124999Y-108990724D01*
X101124999Y-108990724D02*
X101196427Y-109026438D01*
X101196427Y-109026438D02*
X101232142Y-109062152D01*
X101232142Y-109062152D02*
X101267856Y-109133581D01*
X101267856Y-109133581D02*
X101303570Y-109276438D01*
X101303570Y-109276438D02*
X101303570Y-109455010D01*
X101303570Y-109455010D02*
X101267856Y-109597867D01*
X101267856Y-109597867D02*
X101232142Y-109669295D01*
X101232142Y-109669295D02*
X101196427Y-109705010D01*
X101196427Y-109705010D02*
X101124999Y-109740724D01*
X101124999Y-109740724D02*
X101053570Y-109740724D01*
X101053570Y-109740724D02*
X100982142Y-109705010D01*
X100982142Y-109705010D02*
X100946427Y-109669295D01*
X100946427Y-109669295D02*
X100910713Y-109597867D01*
X100910713Y-109597867D02*
X100874999Y-109455010D01*
X100874999Y-109455010D02*
X100874999Y-109276438D01*
X100874999Y-109276438D02*
X100910713Y-109133581D01*
X100910713Y-109133581D02*
X100946427Y-109062152D01*
X100946427Y-109062152D02*
X100982142Y-109026438D01*
X100982142Y-109026438D02*
X101053570Y-108990724D01*
X102089285Y-108990724D02*
X102517857Y-108990724D01*
X102303571Y-109740724D02*
X102303571Y-108990724D01*
X102910714Y-109383581D02*
X102910714Y-109740724D01*
X102660714Y-108990724D02*
X102910714Y-109383581D01*
X102910714Y-109383581D02*
X103160714Y-108990724D01*
X103410714Y-109740724D02*
X103410714Y-108990724D01*
X103410714Y-108990724D02*
X103696428Y-108990724D01*
X103696428Y-108990724D02*
X103767857Y-109026438D01*
X103767857Y-109026438D02*
X103803571Y-109062152D01*
X103803571Y-109062152D02*
X103839285Y-109133581D01*
X103839285Y-109133581D02*
X103839285Y-109240724D01*
X103839285Y-109240724D02*
X103803571Y-109312152D01*
X103803571Y-109312152D02*
X103767857Y-109347867D01*
X103767857Y-109347867D02*
X103696428Y-109383581D01*
X103696428Y-109383581D02*
X103410714Y-109383581D01*
X104160714Y-109347867D02*
X104410714Y-109347867D01*
X104517857Y-109740724D02*
X104160714Y-109740724D01*
X104160714Y-109740724D02*
X104160714Y-108990724D01*
X104160714Y-108990724D02*
X104517857Y-108990724D01*
X105339285Y-108990724D02*
X105803571Y-108990724D01*
X105803571Y-108990724D02*
X105553571Y-109276438D01*
X105553571Y-109276438D02*
X105660714Y-109276438D01*
X105660714Y-109276438D02*
X105732143Y-109312152D01*
X105732143Y-109312152D02*
X105767857Y-109347867D01*
X105767857Y-109347867D02*
X105803571Y-109419295D01*
X105803571Y-109419295D02*
X105803571Y-109597867D01*
X105803571Y-109597867D02*
X105767857Y-109669295D01*
X105767857Y-109669295D02*
X105732143Y-109705010D01*
X105732143Y-109705010D02*
X105660714Y-109740724D01*
X105660714Y-109740724D02*
X105446428Y-109740724D01*
X105446428Y-109740724D02*
X105375000Y-109705010D01*
X105375000Y-109705010D02*
X105339285Y-109669295D01*
X106089286Y-109062152D02*
X106125000Y-109026438D01*
X106125000Y-109026438D02*
X106196429Y-108990724D01*
X106196429Y-108990724D02*
X106375000Y-108990724D01*
X106375000Y-108990724D02*
X106446429Y-109026438D01*
X106446429Y-109026438D02*
X106482143Y-109062152D01*
X106482143Y-109062152D02*
X106517857Y-109133581D01*
X106517857Y-109133581D02*
X106517857Y-109205010D01*
X106517857Y-109205010D02*
X106482143Y-109312152D01*
X106482143Y-109312152D02*
X106053571Y-109740724D01*
X106053571Y-109740724D02*
X106517857Y-109740724D01*
X107589286Y-109990724D02*
X107589286Y-108919295D01*
X108589287Y-108990724D02*
X109017859Y-108990724D01*
X108803573Y-109740724D02*
X108803573Y-108990724D01*
X109232145Y-109526438D02*
X109589288Y-109526438D01*
X109160716Y-109740724D02*
X109410716Y-108990724D01*
X109410716Y-108990724D02*
X109660716Y-109740724D01*
X110160716Y-109347867D02*
X110267859Y-109383581D01*
X110267859Y-109383581D02*
X110303573Y-109419295D01*
X110303573Y-109419295D02*
X110339287Y-109490724D01*
X110339287Y-109490724D02*
X110339287Y-109597867D01*
X110339287Y-109597867D02*
X110303573Y-109669295D01*
X110303573Y-109669295D02*
X110267859Y-109705010D01*
X110267859Y-109705010D02*
X110196430Y-109740724D01*
X110196430Y-109740724D02*
X109910716Y-109740724D01*
X109910716Y-109740724D02*
X109910716Y-108990724D01*
X109910716Y-108990724D02*
X110160716Y-108990724D01*
X110160716Y-108990724D02*
X110232145Y-109026438D01*
X110232145Y-109026438D02*
X110267859Y-109062152D01*
X110267859Y-109062152D02*
X110303573Y-109133581D01*
X110303573Y-109133581D02*
X110303573Y-109205010D01*
X110303573Y-109205010D02*
X110267859Y-109276438D01*
X110267859Y-109276438D02*
X110232145Y-109312152D01*
X110232145Y-109312152D02*
X110160716Y-109347867D01*
X110160716Y-109347867D02*
X109910716Y-109347867D01*
X110625002Y-109705010D02*
X110732145Y-109740724D01*
X110732145Y-109740724D02*
X110910716Y-109740724D01*
X110910716Y-109740724D02*
X110982145Y-109705010D01*
X110982145Y-109705010D02*
X111017859Y-109669295D01*
X111017859Y-109669295D02*
X111053573Y-109597867D01*
X111053573Y-109597867D02*
X111053573Y-109526438D01*
X111053573Y-109526438D02*
X111017859Y-109455010D01*
X111017859Y-109455010D02*
X110982145Y-109419295D01*
X110982145Y-109419295D02*
X110910716Y-109383581D01*
X110910716Y-109383581D02*
X110767859Y-109347867D01*
X110767859Y-109347867D02*
X110696430Y-109312152D01*
X110696430Y-109312152D02*
X110660716Y-109276438D01*
X110660716Y-109276438D02*
X110625002Y-109205010D01*
X110625002Y-109205010D02*
X110625002Y-109133581D01*
X110625002Y-109133581D02*
X110660716Y-109062152D01*
X110660716Y-109062152D02*
X110696430Y-109026438D01*
X110696430Y-109026438D02*
X110767859Y-108990724D01*
X110767859Y-108990724D02*
X110946430Y-108990724D01*
X110946430Y-108990724D02*
X111053573Y-109026438D01*
X112089288Y-108990724D02*
X112232145Y-108990724D01*
X112232145Y-108990724D02*
X112303574Y-109026438D01*
X112303574Y-109026438D02*
X112375002Y-109097867D01*
X112375002Y-109097867D02*
X112410717Y-109240724D01*
X112410717Y-109240724D02*
X112410717Y-109490724D01*
X112410717Y-109490724D02*
X112375002Y-109633581D01*
X112375002Y-109633581D02*
X112303574Y-109705010D01*
X112303574Y-109705010D02*
X112232145Y-109740724D01*
X112232145Y-109740724D02*
X112089288Y-109740724D01*
X112089288Y-109740724D02*
X112017860Y-109705010D01*
X112017860Y-109705010D02*
X111946431Y-109633581D01*
X111946431Y-109633581D02*
X111910717Y-109490724D01*
X111910717Y-109490724D02*
X111910717Y-109240724D01*
X111910717Y-109240724D02*
X111946431Y-109097867D01*
X111946431Y-109097867D02*
X112017860Y-109026438D01*
X112017860Y-109026438D02*
X112089288Y-108990724D01*
X112732145Y-108990724D02*
X112732145Y-109597867D01*
X112732145Y-109597867D02*
X112767859Y-109669295D01*
X112767859Y-109669295D02*
X112803574Y-109705010D01*
X112803574Y-109705010D02*
X112875002Y-109740724D01*
X112875002Y-109740724D02*
X113017859Y-109740724D01*
X113017859Y-109740724D02*
X113089288Y-109705010D01*
X113089288Y-109705010D02*
X113125002Y-109669295D01*
X113125002Y-109669295D02*
X113160716Y-109597867D01*
X113160716Y-109597867D02*
X113160716Y-108990724D01*
X113410716Y-108990724D02*
X113839288Y-108990724D01*
X113625002Y-109740724D02*
X113625002Y-108990724D01*
X114017859Y-108990724D02*
X114196431Y-109740724D01*
X114196431Y-109740724D02*
X114339288Y-109205010D01*
X114339288Y-109205010D02*
X114482145Y-109740724D01*
X114482145Y-109740724D02*
X114660717Y-108990724D01*
X114910717Y-109526438D02*
X115267860Y-109526438D01*
X114839288Y-109740724D02*
X115089288Y-108990724D01*
X115089288Y-108990724D02*
X115339288Y-109740724D01*
X116017859Y-109740724D02*
X115767859Y-109383581D01*
X115589288Y-109740724D02*
X115589288Y-108990724D01*
X115589288Y-108990724D02*
X115875002Y-108990724D01*
X115875002Y-108990724D02*
X115946431Y-109026438D01*
X115946431Y-109026438D02*
X115982145Y-109062152D01*
X115982145Y-109062152D02*
X116017859Y-109133581D01*
X116017859Y-109133581D02*
X116017859Y-109240724D01*
X116017859Y-109240724D02*
X115982145Y-109312152D01*
X115982145Y-109312152D02*
X115946431Y-109347867D01*
X115946431Y-109347867D02*
X115875002Y-109383581D01*
X115875002Y-109383581D02*
X115589288Y-109383581D01*
X116339288Y-109740724D02*
X116339288Y-108990724D01*
X116339288Y-108990724D02*
X116517859Y-108990724D01*
X116517859Y-108990724D02*
X116625002Y-109026438D01*
X116625002Y-109026438D02*
X116696431Y-109097867D01*
X116696431Y-109097867D02*
X116732145Y-109169295D01*
X116732145Y-109169295D02*
X116767859Y-109312152D01*
X116767859Y-109312152D02*
X116767859Y-109419295D01*
X116767859Y-109419295D02*
X116732145Y-109562152D01*
X116732145Y-109562152D02*
X116696431Y-109633581D01*
X116696431Y-109633581D02*
X116625002Y-109705010D01*
X116625002Y-109705010D02*
X116517859Y-109740724D01*
X116517859Y-109740724D02*
X116339288Y-109740724D01*
D11*
X101239285Y-134245502D02*
X101610714Y-134245502D01*
X101425000Y-134895502D02*
X101425000Y-134245502D01*
X101827380Y-134895502D02*
X101827380Y-134245502D01*
X101827380Y-134245502D02*
X102074999Y-134245502D01*
X102074999Y-134245502D02*
X102136904Y-134276454D01*
X102136904Y-134276454D02*
X102167857Y-134307407D01*
X102167857Y-134307407D02*
X102198809Y-134369311D01*
X102198809Y-134369311D02*
X102198809Y-134462169D01*
X102198809Y-134462169D02*
X102167857Y-134524073D01*
X102167857Y-134524073D02*
X102136904Y-134555026D01*
X102136904Y-134555026D02*
X102074999Y-134585978D01*
X102074999Y-134585978D02*
X101827380Y-134585978D01*
X102477380Y-134833597D02*
X102508333Y-134864550D01*
X102508333Y-134864550D02*
X102477380Y-134895502D01*
X102477380Y-134895502D02*
X102446428Y-134864550D01*
X102446428Y-134864550D02*
X102477380Y-134833597D01*
X102477380Y-134833597D02*
X102477380Y-134895502D01*
X102477380Y-134493121D02*
X102508333Y-134524073D01*
X102508333Y-134524073D02*
X102477380Y-134555026D01*
X102477380Y-134555026D02*
X102446428Y-134524073D01*
X102446428Y-134524073D02*
X102477380Y-134493121D01*
X102477380Y-134493121D02*
X102477380Y-134555026D01*
X103282142Y-134895502D02*
X103282142Y-134245502D01*
X103282142Y-134245502D02*
X103529761Y-134245502D01*
X103529761Y-134245502D02*
X103591666Y-134276454D01*
X103591666Y-134276454D02*
X103622619Y-134307407D01*
X103622619Y-134307407D02*
X103653571Y-134369311D01*
X103653571Y-134369311D02*
X103653571Y-134462169D01*
X103653571Y-134462169D02*
X103622619Y-134524073D01*
X103622619Y-134524073D02*
X103591666Y-134555026D01*
X103591666Y-134555026D02*
X103529761Y-134585978D01*
X103529761Y-134585978D02*
X103282142Y-134585978D01*
X103839285Y-134245502D02*
X104055952Y-134895502D01*
X104055952Y-134895502D02*
X104272619Y-134245502D01*
X104489285Y-134647883D02*
X104984524Y-134647883D01*
X106253571Y-134214550D02*
X105696428Y-135050264D01*
X106965475Y-134895502D02*
X106965475Y-134245502D01*
X106965475Y-134245502D02*
X107213094Y-134245502D01*
X107213094Y-134245502D02*
X107274999Y-134276454D01*
X107274999Y-134276454D02*
X107305952Y-134307407D01*
X107305952Y-134307407D02*
X107336904Y-134369311D01*
X107336904Y-134369311D02*
X107336904Y-134462169D01*
X107336904Y-134462169D02*
X107305952Y-134524073D01*
X107305952Y-134524073D02*
X107274999Y-134555026D01*
X107274999Y-134555026D02*
X107213094Y-134585978D01*
X107213094Y-134585978D02*
X106965475Y-134585978D01*
X107522618Y-134245502D02*
X107739285Y-134895502D01*
X107739285Y-134895502D02*
X107955952Y-134245502D01*
X108172618Y-134647883D02*
X108667857Y-134647883D01*
X108420237Y-134895502D02*
X108420237Y-134400264D01*
D12*
X94389527Y-126364020D02*
X94463813Y-126388782D01*
X94463813Y-126388782D02*
X94488575Y-126413544D01*
X94488575Y-126413544D02*
X94513337Y-126463068D01*
X94513337Y-126463068D02*
X94513337Y-126537354D01*
X94513337Y-126537354D02*
X94488575Y-126586878D01*
X94488575Y-126586878D02*
X94463813Y-126611640D01*
X94463813Y-126611640D02*
X94414289Y-126636401D01*
X94414289Y-126636401D02*
X94216194Y-126636401D01*
X94216194Y-126636401D02*
X94216194Y-126116401D01*
X94216194Y-126116401D02*
X94389527Y-126116401D01*
X94389527Y-126116401D02*
X94439051Y-126141163D01*
X94439051Y-126141163D02*
X94463813Y-126165925D01*
X94463813Y-126165925D02*
X94488575Y-126215449D01*
X94488575Y-126215449D02*
X94488575Y-126264973D01*
X94488575Y-126264973D02*
X94463813Y-126314497D01*
X94463813Y-126314497D02*
X94439051Y-126339259D01*
X94439051Y-126339259D02*
X94389527Y-126364020D01*
X94389527Y-126364020D02*
X94216194Y-126364020D01*
X94736194Y-126364020D02*
X94909527Y-126364020D01*
X94983813Y-126636401D02*
X94736194Y-126636401D01*
X94736194Y-126636401D02*
X94736194Y-126116401D01*
X94736194Y-126116401D02*
X94983813Y-126116401D01*
X95206670Y-126636401D02*
X95206670Y-126116401D01*
X95206670Y-126116401D02*
X95503813Y-126636401D01*
X95503813Y-126636401D02*
X95503813Y-126116401D01*
X96048575Y-126586878D02*
X96023813Y-126611640D01*
X96023813Y-126611640D02*
X95949527Y-126636401D01*
X95949527Y-126636401D02*
X95900003Y-126636401D01*
X95900003Y-126636401D02*
X95825718Y-126611640D01*
X95825718Y-126611640D02*
X95776194Y-126562116D01*
X95776194Y-126562116D02*
X95751432Y-126512592D01*
X95751432Y-126512592D02*
X95726670Y-126413544D01*
X95726670Y-126413544D02*
X95726670Y-126339259D01*
X95726670Y-126339259D02*
X95751432Y-126240211D01*
X95751432Y-126240211D02*
X95776194Y-126190687D01*
X95776194Y-126190687D02*
X95825718Y-126141163D01*
X95825718Y-126141163D02*
X95900003Y-126116401D01*
X95900003Y-126116401D02*
X95949527Y-126116401D01*
X95949527Y-126116401D02*
X96023813Y-126141163D01*
X96023813Y-126141163D02*
X96048575Y-126165925D01*
X96271432Y-126636401D02*
X96271432Y-126116401D01*
X96271432Y-126364020D02*
X96568575Y-126364020D01*
X96568575Y-126636401D02*
X96568575Y-126116401D01*
X97212384Y-126636401D02*
X97212384Y-126116401D01*
X97212384Y-126116401D02*
X97410479Y-126116401D01*
X97410479Y-126116401D02*
X97460003Y-126141163D01*
X97460003Y-126141163D02*
X97484765Y-126165925D01*
X97484765Y-126165925D02*
X97509527Y-126215449D01*
X97509527Y-126215449D02*
X97509527Y-126289735D01*
X97509527Y-126289735D02*
X97484765Y-126339259D01*
X97484765Y-126339259D02*
X97460003Y-126364020D01*
X97460003Y-126364020D02*
X97410479Y-126388782D01*
X97410479Y-126388782D02*
X97212384Y-126388782D01*
X97707622Y-126487830D02*
X97955241Y-126487830D01*
X97658098Y-126636401D02*
X97831432Y-126116401D01*
X97831432Y-126116401D02*
X98004765Y-126636401D01*
X98178098Y-126636401D02*
X98178098Y-126116401D01*
X98178098Y-126116401D02*
X98301908Y-126116401D01*
X98301908Y-126116401D02*
X98376193Y-126141163D01*
X98376193Y-126141163D02*
X98425717Y-126190687D01*
X98425717Y-126190687D02*
X98450479Y-126240211D01*
X98450479Y-126240211D02*
X98475241Y-126339259D01*
X98475241Y-126339259D02*
X98475241Y-126413544D01*
X98475241Y-126413544D02*
X98450479Y-126512592D01*
X98450479Y-126512592D02*
X98425717Y-126562116D01*
X98425717Y-126562116D02*
X98376193Y-126611640D01*
X98376193Y-126611640D02*
X98301908Y-126636401D01*
X98301908Y-126636401D02*
X98178098Y-126636401D01*
X98673336Y-126611640D02*
X98747622Y-126636401D01*
X98747622Y-126636401D02*
X98871431Y-126636401D01*
X98871431Y-126636401D02*
X98920955Y-126611640D01*
X98920955Y-126611640D02*
X98945717Y-126586878D01*
X98945717Y-126586878D02*
X98970479Y-126537354D01*
X98970479Y-126537354D02*
X98970479Y-126487830D01*
X98970479Y-126487830D02*
X98945717Y-126438306D01*
X98945717Y-126438306D02*
X98920955Y-126413544D01*
X98920955Y-126413544D02*
X98871431Y-126388782D01*
X98871431Y-126388782D02*
X98772384Y-126364020D01*
X98772384Y-126364020D02*
X98722860Y-126339259D01*
X98722860Y-126339259D02*
X98698098Y-126314497D01*
X98698098Y-126314497D02*
X98673336Y-126264973D01*
X98673336Y-126264973D02*
X98673336Y-126215449D01*
X98673336Y-126215449D02*
X98698098Y-126165925D01*
X98698098Y-126165925D02*
X98722860Y-126141163D01*
X98722860Y-126141163D02*
X98772384Y-126116401D01*
X98772384Y-126116401D02*
X98896193Y-126116401D01*
X98896193Y-126116401D02*
X98970479Y-126141163D01*
X99688574Y-126116401D02*
X99787621Y-126116401D01*
X99787621Y-126116401D02*
X99837145Y-126141163D01*
X99837145Y-126141163D02*
X99886669Y-126190687D01*
X99886669Y-126190687D02*
X99911431Y-126289735D01*
X99911431Y-126289735D02*
X99911431Y-126463068D01*
X99911431Y-126463068D02*
X99886669Y-126562116D01*
X99886669Y-126562116D02*
X99837145Y-126611640D01*
X99837145Y-126611640D02*
X99787621Y-126636401D01*
X99787621Y-126636401D02*
X99688574Y-126636401D01*
X99688574Y-126636401D02*
X99639050Y-126611640D01*
X99639050Y-126611640D02*
X99589526Y-126562116D01*
X99589526Y-126562116D02*
X99564764Y-126463068D01*
X99564764Y-126463068D02*
X99564764Y-126289735D01*
X99564764Y-126289735D02*
X99589526Y-126190687D01*
X99589526Y-126190687D02*
X99639050Y-126141163D01*
X99639050Y-126141163D02*
X99688574Y-126116401D01*
X100134288Y-126636401D02*
X100134288Y-126116401D01*
X100134288Y-126116401D02*
X100431431Y-126636401D01*
X100431431Y-126636401D02*
X100431431Y-126116401D01*
X100926669Y-126636401D02*
X100679050Y-126636401D01*
X100679050Y-126636401D02*
X100679050Y-126116401D01*
X101199050Y-126388782D02*
X101199050Y-126636401D01*
X101025716Y-126116401D02*
X101199050Y-126388782D01*
X101199050Y-126388782D02*
X101372383Y-126116401D01*
X101941906Y-126438306D02*
X102338097Y-126438306D01*
X103155239Y-126364020D02*
X102981906Y-126364020D01*
X102981906Y-126636401D02*
X102981906Y-126116401D01*
X102981906Y-126116401D02*
X103229525Y-126116401D01*
X103427620Y-126636401D02*
X103427620Y-126116401D01*
X103675239Y-126636401D02*
X103675239Y-126116401D01*
X103675239Y-126116401D02*
X103972382Y-126636401D01*
X103972382Y-126636401D02*
X103972382Y-126116401D01*
X104195239Y-126487830D02*
X104442858Y-126487830D01*
X104145715Y-126636401D02*
X104319049Y-126116401D01*
X104319049Y-126116401D02*
X104492382Y-126636401D01*
X104913334Y-126636401D02*
X104665715Y-126636401D01*
X104665715Y-126636401D02*
X104665715Y-126116401D01*
X105482857Y-126636401D02*
X105482857Y-126116401D01*
X105730476Y-126636401D02*
X105730476Y-126116401D01*
X105730476Y-126116401D02*
X106027619Y-126636401D01*
X106027619Y-126636401D02*
X106027619Y-126116401D01*
X106200952Y-126116401D02*
X106498095Y-126116401D01*
X106349524Y-126636401D02*
X106349524Y-126116401D01*
X106671428Y-126364020D02*
X106844761Y-126364020D01*
X106919047Y-126636401D02*
X106671428Y-126636401D01*
X106671428Y-126636401D02*
X106671428Y-126116401D01*
X106671428Y-126116401D02*
X106919047Y-126116401D01*
X107439047Y-126636401D02*
X107265714Y-126388782D01*
X107141904Y-126636401D02*
X107141904Y-126116401D01*
X107141904Y-126116401D02*
X107339999Y-126116401D01*
X107339999Y-126116401D02*
X107389523Y-126141163D01*
X107389523Y-126141163D02*
X107414285Y-126165925D01*
X107414285Y-126165925D02*
X107439047Y-126215449D01*
X107439047Y-126215449D02*
X107439047Y-126289735D01*
X107439047Y-126289735D02*
X107414285Y-126339259D01*
X107414285Y-126339259D02*
X107389523Y-126364020D01*
X107389523Y-126364020D02*
X107339999Y-126388782D01*
X107339999Y-126388782D02*
X107141904Y-126388782D01*
X107835237Y-126364020D02*
X107661904Y-126364020D01*
X107661904Y-126636401D02*
X107661904Y-126116401D01*
X107661904Y-126116401D02*
X107909523Y-126116401D01*
X108082856Y-126487830D02*
X108330475Y-126487830D01*
X108033332Y-126636401D02*
X108206666Y-126116401D01*
X108206666Y-126116401D02*
X108379999Y-126636401D01*
X108850475Y-126586878D02*
X108825713Y-126611640D01*
X108825713Y-126611640D02*
X108751427Y-126636401D01*
X108751427Y-126636401D02*
X108701903Y-126636401D01*
X108701903Y-126636401D02*
X108627618Y-126611640D01*
X108627618Y-126611640D02*
X108578094Y-126562116D01*
X108578094Y-126562116D02*
X108553332Y-126512592D01*
X108553332Y-126512592D02*
X108528570Y-126413544D01*
X108528570Y-126413544D02*
X108528570Y-126339259D01*
X108528570Y-126339259D02*
X108553332Y-126240211D01*
X108553332Y-126240211D02*
X108578094Y-126190687D01*
X108578094Y-126190687D02*
X108627618Y-126141163D01*
X108627618Y-126141163D02*
X108701903Y-126116401D01*
X108701903Y-126116401D02*
X108751427Y-126116401D01*
X108751427Y-126116401D02*
X108825713Y-126141163D01*
X108825713Y-126141163D02*
X108850475Y-126165925D01*
X109073332Y-126364020D02*
X109246665Y-126364020D01*
X109320951Y-126636401D02*
X109073332Y-126636401D01*
X109073332Y-126636401D02*
X109073332Y-126116401D01*
X109073332Y-126116401D02*
X109320951Y-126116401D01*
X109939998Y-126636401D02*
X109939998Y-126116401D01*
X110162855Y-126611640D02*
X110237141Y-126636401D01*
X110237141Y-126636401D02*
X110360950Y-126636401D01*
X110360950Y-126636401D02*
X110410474Y-126611640D01*
X110410474Y-126611640D02*
X110435236Y-126586878D01*
X110435236Y-126586878D02*
X110459998Y-126537354D01*
X110459998Y-126537354D02*
X110459998Y-126487830D01*
X110459998Y-126487830D02*
X110435236Y-126438306D01*
X110435236Y-126438306D02*
X110410474Y-126413544D01*
X110410474Y-126413544D02*
X110360950Y-126388782D01*
X110360950Y-126388782D02*
X110261903Y-126364020D01*
X110261903Y-126364020D02*
X110212379Y-126339259D01*
X110212379Y-126339259D02*
X110187617Y-126314497D01*
X110187617Y-126314497D02*
X110162855Y-126264973D01*
X110162855Y-126264973D02*
X110162855Y-126215449D01*
X110162855Y-126215449D02*
X110187617Y-126165925D01*
X110187617Y-126165925D02*
X110212379Y-126141163D01*
X110212379Y-126141163D02*
X110261903Y-126116401D01*
X110261903Y-126116401D02*
X110385712Y-126116401D01*
X110385712Y-126116401D02*
X110459998Y-126141163D01*
X111227616Y-126116401D02*
X111227616Y-126487830D01*
X111227616Y-126487830D02*
X111202855Y-126562116D01*
X111202855Y-126562116D02*
X111153331Y-126611640D01*
X111153331Y-126611640D02*
X111079045Y-126636401D01*
X111079045Y-126636401D02*
X111029521Y-126636401D01*
X111747616Y-126636401D02*
X111450473Y-126636401D01*
X111599045Y-126636401D02*
X111599045Y-126116401D01*
X111599045Y-126116401D02*
X111549521Y-126190687D01*
X111549521Y-126190687D02*
X111499997Y-126240211D01*
X111499997Y-126240211D02*
X111450473Y-126264973D01*
X112341902Y-126091640D02*
X111896187Y-126760211D01*
X112515235Y-126636401D02*
X112515235Y-126116401D01*
X112515235Y-126364020D02*
X112812378Y-126364020D01*
X112812378Y-126636401D02*
X112812378Y-126116401D01*
X113035235Y-126487830D02*
X113282854Y-126487830D01*
X112985711Y-126636401D02*
X113159045Y-126116401D01*
X113159045Y-126116401D02*
X113332378Y-126636401D01*
X113802854Y-126636401D02*
X113629521Y-126388782D01*
X113505711Y-126636401D02*
X113505711Y-126116401D01*
X113505711Y-126116401D02*
X113703806Y-126116401D01*
X113703806Y-126116401D02*
X113753330Y-126141163D01*
X113753330Y-126141163D02*
X113778092Y-126165925D01*
X113778092Y-126165925D02*
X113802854Y-126215449D01*
X113802854Y-126215449D02*
X113802854Y-126289735D01*
X113802854Y-126289735D02*
X113778092Y-126339259D01*
X113778092Y-126339259D02*
X113753330Y-126364020D01*
X113753330Y-126364020D02*
X113703806Y-126388782D01*
X113703806Y-126388782D02*
X113505711Y-126388782D01*
X114025711Y-126636401D02*
X114025711Y-126116401D01*
X114025711Y-126116401D02*
X114322854Y-126636401D01*
X114322854Y-126636401D02*
X114322854Y-126116401D01*
X114570473Y-126364020D02*
X114743806Y-126364020D01*
X114818092Y-126636401D02*
X114570473Y-126636401D01*
X114570473Y-126636401D02*
X114570473Y-126116401D01*
X114570473Y-126116401D02*
X114818092Y-126116401D01*
X115016187Y-126611640D02*
X115090473Y-126636401D01*
X115090473Y-126636401D02*
X115214282Y-126636401D01*
X115214282Y-126636401D02*
X115263806Y-126611640D01*
X115263806Y-126611640D02*
X115288568Y-126586878D01*
X115288568Y-126586878D02*
X115313330Y-126537354D01*
X115313330Y-126537354D02*
X115313330Y-126487830D01*
X115313330Y-126487830D02*
X115288568Y-126438306D01*
X115288568Y-126438306D02*
X115263806Y-126413544D01*
X115263806Y-126413544D02*
X115214282Y-126388782D01*
X115214282Y-126388782D02*
X115115235Y-126364020D01*
X115115235Y-126364020D02*
X115065711Y-126339259D01*
X115065711Y-126339259D02*
X115040949Y-126314497D01*
X115040949Y-126314497D02*
X115016187Y-126264973D01*
X115016187Y-126264973D02*
X115016187Y-126215449D01*
X115016187Y-126215449D02*
X115040949Y-126165925D01*
X115040949Y-126165925D02*
X115065711Y-126141163D01*
X115065711Y-126141163D02*
X115115235Y-126116401D01*
X115115235Y-126116401D02*
X115239044Y-126116401D01*
X115239044Y-126116401D02*
X115313330Y-126141163D01*
X115511425Y-126611640D02*
X115585711Y-126636401D01*
X115585711Y-126636401D02*
X115709520Y-126636401D01*
X115709520Y-126636401D02*
X115759044Y-126611640D01*
X115759044Y-126611640D02*
X115783806Y-126586878D01*
X115783806Y-126586878D02*
X115808568Y-126537354D01*
X115808568Y-126537354D02*
X115808568Y-126487830D01*
X115808568Y-126487830D02*
X115783806Y-126438306D01*
X115783806Y-126438306D02*
X115759044Y-126413544D01*
X115759044Y-126413544D02*
X115709520Y-126388782D01*
X115709520Y-126388782D02*
X115610473Y-126364020D01*
X115610473Y-126364020D02*
X115560949Y-126339259D01*
X115560949Y-126339259D02*
X115536187Y-126314497D01*
X115536187Y-126314497D02*
X115511425Y-126264973D01*
X115511425Y-126264973D02*
X115511425Y-126215449D01*
X115511425Y-126215449D02*
X115536187Y-126165925D01*
X115536187Y-126165925D02*
X115560949Y-126141163D01*
X115560949Y-126141163D02*
X115610473Y-126116401D01*
X115610473Y-126116401D02*
X115734282Y-126116401D01*
X115734282Y-126116401D02*
X115808568Y-126141163D01*
D10*
X99428572Y-66730010D02*
X99535715Y-66765724D01*
X99535715Y-66765724D02*
X99714286Y-66765724D01*
X99714286Y-66765724D02*
X99785715Y-66730010D01*
X99785715Y-66730010D02*
X99821429Y-66694295D01*
X99821429Y-66694295D02*
X99857143Y-66622867D01*
X99857143Y-66622867D02*
X99857143Y-66551438D01*
X99857143Y-66551438D02*
X99821429Y-66480010D01*
X99821429Y-66480010D02*
X99785715Y-66444295D01*
X99785715Y-66444295D02*
X99714286Y-66408581D01*
X99714286Y-66408581D02*
X99571429Y-66372867D01*
X99571429Y-66372867D02*
X99500000Y-66337152D01*
X99500000Y-66337152D02*
X99464286Y-66301438D01*
X99464286Y-66301438D02*
X99428572Y-66230010D01*
X99428572Y-66230010D02*
X99428572Y-66158581D01*
X99428572Y-66158581D02*
X99464286Y-66087152D01*
X99464286Y-66087152D02*
X99500000Y-66051438D01*
X99500000Y-66051438D02*
X99571429Y-66015724D01*
X99571429Y-66015724D02*
X99750000Y-66015724D01*
X99750000Y-66015724D02*
X99857143Y-66051438D01*
X100607143Y-66694295D02*
X100571429Y-66730010D01*
X100571429Y-66730010D02*
X100464286Y-66765724D01*
X100464286Y-66765724D02*
X100392858Y-66765724D01*
X100392858Y-66765724D02*
X100285715Y-66730010D01*
X100285715Y-66730010D02*
X100214286Y-66658581D01*
X100214286Y-66658581D02*
X100178572Y-66587152D01*
X100178572Y-66587152D02*
X100142858Y-66444295D01*
X100142858Y-66444295D02*
X100142858Y-66337152D01*
X100142858Y-66337152D02*
X100178572Y-66194295D01*
X100178572Y-66194295D02*
X100214286Y-66122867D01*
X100214286Y-66122867D02*
X100285715Y-66051438D01*
X100285715Y-66051438D02*
X100392858Y-66015724D01*
X100392858Y-66015724D02*
X100464286Y-66015724D01*
X100464286Y-66015724D02*
X100571429Y-66051438D01*
X100571429Y-66051438D02*
X100607143Y-66087152D01*
X101321429Y-66765724D02*
X100892858Y-66765724D01*
X101107143Y-66765724D02*
X101107143Y-66015724D01*
X101107143Y-66015724D02*
X101035715Y-66122867D01*
X101035715Y-66122867D02*
X100964286Y-66194295D01*
X100964286Y-66194295D02*
X100892858Y-66230010D01*
X101642858Y-66480010D02*
X102214287Y-66480010D01*
X103142858Y-66372867D02*
X103714287Y-66372867D01*
X103714287Y-66587152D02*
X103142858Y-66587152D01*
X104642858Y-66765724D02*
X104642858Y-66015724D01*
X104642858Y-66015724D02*
X104928572Y-66015724D01*
X104928572Y-66015724D02*
X105000001Y-66051438D01*
X105000001Y-66051438D02*
X105035715Y-66087152D01*
X105035715Y-66087152D02*
X105071429Y-66158581D01*
X105071429Y-66158581D02*
X105071429Y-66265724D01*
X105071429Y-66265724D02*
X105035715Y-66337152D01*
X105035715Y-66337152D02*
X105000001Y-66372867D01*
X105000001Y-66372867D02*
X104928572Y-66408581D01*
X104928572Y-66408581D02*
X104642858Y-66408581D01*
X105357144Y-66551438D02*
X105714287Y-66551438D01*
X105285715Y-66765724D02*
X105535715Y-66015724D01*
X105535715Y-66015724D02*
X105785715Y-66765724D01*
X106035715Y-66765724D02*
X106035715Y-66015724D01*
X106035715Y-66015724D02*
X106464286Y-66765724D01*
X106464286Y-66765724D02*
X106464286Y-66015724D01*
X106821429Y-66372867D02*
X107071429Y-66372867D01*
X107178572Y-66765724D02*
X106821429Y-66765724D01*
X106821429Y-66765724D02*
X106821429Y-66015724D01*
X106821429Y-66015724D02*
X107178572Y-66015724D01*
X107857143Y-66765724D02*
X107500000Y-66765724D01*
X107500000Y-66765724D02*
X107500000Y-66015724D01*
X107928572Y-66837152D02*
X108500000Y-66837152D01*
X108678572Y-66765724D02*
X108678572Y-66015724D01*
X108678572Y-66015724D02*
X109107143Y-66765724D01*
X109107143Y-66765724D02*
X109107143Y-66015724D01*
X109464286Y-66372867D02*
X109714286Y-66372867D01*
X109821429Y-66765724D02*
X109464286Y-66765724D01*
X109464286Y-66765724D02*
X109464286Y-66015724D01*
X109464286Y-66015724D02*
X109821429Y-66015724D01*
X110535714Y-66051438D02*
X110464286Y-66015724D01*
X110464286Y-66015724D02*
X110357143Y-66015724D01*
X110357143Y-66015724D02*
X110250000Y-66051438D01*
X110250000Y-66051438D02*
X110178571Y-66122867D01*
X110178571Y-66122867D02*
X110142857Y-66194295D01*
X110142857Y-66194295D02*
X110107143Y-66337152D01*
X110107143Y-66337152D02*
X110107143Y-66444295D01*
X110107143Y-66444295D02*
X110142857Y-66587152D01*
X110142857Y-66587152D02*
X110178571Y-66658581D01*
X110178571Y-66658581D02*
X110250000Y-66730010D01*
X110250000Y-66730010D02*
X110357143Y-66765724D01*
X110357143Y-66765724D02*
X110428571Y-66765724D01*
X110428571Y-66765724D02*
X110535714Y-66730010D01*
X110535714Y-66730010D02*
X110571428Y-66694295D01*
X110571428Y-66694295D02*
X110571428Y-66444295D01*
X110571428Y-66444295D02*
X110428571Y-66444295D01*
X99410714Y-84730010D02*
X99517857Y-84765724D01*
X99517857Y-84765724D02*
X99696428Y-84765724D01*
X99696428Y-84765724D02*
X99767857Y-84730010D01*
X99767857Y-84730010D02*
X99803571Y-84694295D01*
X99803571Y-84694295D02*
X99839285Y-84622867D01*
X99839285Y-84622867D02*
X99839285Y-84551438D01*
X99839285Y-84551438D02*
X99803571Y-84480010D01*
X99803571Y-84480010D02*
X99767857Y-84444295D01*
X99767857Y-84444295D02*
X99696428Y-84408581D01*
X99696428Y-84408581D02*
X99553571Y-84372867D01*
X99553571Y-84372867D02*
X99482142Y-84337152D01*
X99482142Y-84337152D02*
X99446428Y-84301438D01*
X99446428Y-84301438D02*
X99410714Y-84230010D01*
X99410714Y-84230010D02*
X99410714Y-84158581D01*
X99410714Y-84158581D02*
X99446428Y-84087152D01*
X99446428Y-84087152D02*
X99482142Y-84051438D01*
X99482142Y-84051438D02*
X99553571Y-84015724D01*
X99553571Y-84015724D02*
X99732142Y-84015724D01*
X99732142Y-84015724D02*
X99839285Y-84051438D01*
X100589285Y-84694295D02*
X100553571Y-84730010D01*
X100553571Y-84730010D02*
X100446428Y-84765724D01*
X100446428Y-84765724D02*
X100375000Y-84765724D01*
X100375000Y-84765724D02*
X100267857Y-84730010D01*
X100267857Y-84730010D02*
X100196428Y-84658581D01*
X100196428Y-84658581D02*
X100160714Y-84587152D01*
X100160714Y-84587152D02*
X100125000Y-84444295D01*
X100125000Y-84444295D02*
X100125000Y-84337152D01*
X100125000Y-84337152D02*
X100160714Y-84194295D01*
X100160714Y-84194295D02*
X100196428Y-84122867D01*
X100196428Y-84122867D02*
X100267857Y-84051438D01*
X100267857Y-84051438D02*
X100375000Y-84015724D01*
X100375000Y-84015724D02*
X100446428Y-84015724D01*
X100446428Y-84015724D02*
X100553571Y-84051438D01*
X100553571Y-84051438D02*
X100589285Y-84087152D01*
X101303571Y-84765724D02*
X100875000Y-84765724D01*
X101089285Y-84765724D02*
X101089285Y-84015724D01*
X101089285Y-84015724D02*
X101017857Y-84122867D01*
X101017857Y-84122867D02*
X100946428Y-84194295D01*
X100946428Y-84194295D02*
X100875000Y-84230010D01*
X101625000Y-84480010D02*
X102196429Y-84480010D01*
X101910714Y-84765724D02*
X101910714Y-84194295D01*
X103125000Y-84372867D02*
X103696429Y-84372867D01*
X103696429Y-84587152D02*
X103125000Y-84587152D01*
X104625000Y-84765724D02*
X104625000Y-84015724D01*
X104625000Y-84015724D02*
X104910714Y-84015724D01*
X104910714Y-84015724D02*
X104982143Y-84051438D01*
X104982143Y-84051438D02*
X105017857Y-84087152D01*
X105017857Y-84087152D02*
X105053571Y-84158581D01*
X105053571Y-84158581D02*
X105053571Y-84265724D01*
X105053571Y-84265724D02*
X105017857Y-84337152D01*
X105017857Y-84337152D02*
X104982143Y-84372867D01*
X104982143Y-84372867D02*
X104910714Y-84408581D01*
X104910714Y-84408581D02*
X104625000Y-84408581D01*
X105339286Y-84551438D02*
X105696429Y-84551438D01*
X105267857Y-84765724D02*
X105517857Y-84015724D01*
X105517857Y-84015724D02*
X105767857Y-84765724D01*
X106017857Y-84765724D02*
X106017857Y-84015724D01*
X106017857Y-84015724D02*
X106446428Y-84765724D01*
X106446428Y-84765724D02*
X106446428Y-84015724D01*
X106803571Y-84372867D02*
X107053571Y-84372867D01*
X107160714Y-84765724D02*
X106803571Y-84765724D01*
X106803571Y-84765724D02*
X106803571Y-84015724D01*
X106803571Y-84015724D02*
X107160714Y-84015724D01*
X107839285Y-84765724D02*
X107482142Y-84765724D01*
X107482142Y-84765724D02*
X107482142Y-84015724D01*
X107910714Y-84837152D02*
X108482142Y-84837152D01*
X108660714Y-84765724D02*
X108660714Y-84015724D01*
X108660714Y-84015724D02*
X108946428Y-84015724D01*
X108946428Y-84015724D02*
X109017857Y-84051438D01*
X109017857Y-84051438D02*
X109053571Y-84087152D01*
X109053571Y-84087152D02*
X109089285Y-84158581D01*
X109089285Y-84158581D02*
X109089285Y-84265724D01*
X109089285Y-84265724D02*
X109053571Y-84337152D01*
X109053571Y-84337152D02*
X109017857Y-84372867D01*
X109017857Y-84372867D02*
X108946428Y-84408581D01*
X108946428Y-84408581D02*
X108660714Y-84408581D01*
X109553571Y-84015724D02*
X109696428Y-84015724D01*
X109696428Y-84015724D02*
X109767857Y-84051438D01*
X109767857Y-84051438D02*
X109839285Y-84122867D01*
X109839285Y-84122867D02*
X109875000Y-84265724D01*
X109875000Y-84265724D02*
X109875000Y-84515724D01*
X109875000Y-84515724D02*
X109839285Y-84658581D01*
X109839285Y-84658581D02*
X109767857Y-84730010D01*
X109767857Y-84730010D02*
X109696428Y-84765724D01*
X109696428Y-84765724D02*
X109553571Y-84765724D01*
X109553571Y-84765724D02*
X109482143Y-84730010D01*
X109482143Y-84730010D02*
X109410714Y-84658581D01*
X109410714Y-84658581D02*
X109375000Y-84515724D01*
X109375000Y-84515724D02*
X109375000Y-84265724D01*
X109375000Y-84265724D02*
X109410714Y-84122867D01*
X109410714Y-84122867D02*
X109482143Y-84051438D01*
X109482143Y-84051438D02*
X109553571Y-84015724D01*
X110160714Y-84730010D02*
X110267857Y-84765724D01*
X110267857Y-84765724D02*
X110446428Y-84765724D01*
X110446428Y-84765724D02*
X110517857Y-84730010D01*
X110517857Y-84730010D02*
X110553571Y-84694295D01*
X110553571Y-84694295D02*
X110589285Y-84622867D01*
X110589285Y-84622867D02*
X110589285Y-84551438D01*
X110589285Y-84551438D02*
X110553571Y-84480010D01*
X110553571Y-84480010D02*
X110517857Y-84444295D01*
X110517857Y-84444295D02*
X110446428Y-84408581D01*
X110446428Y-84408581D02*
X110303571Y-84372867D01*
X110303571Y-84372867D02*
X110232142Y-84337152D01*
X110232142Y-84337152D02*
X110196428Y-84301438D01*
X110196428Y-84301438D02*
X110160714Y-84230010D01*
X110160714Y-84230010D02*
X110160714Y-84158581D01*
X110160714Y-84158581D02*
X110196428Y-84087152D01*
X110196428Y-84087152D02*
X110232142Y-84051438D01*
X110232142Y-84051438D02*
X110303571Y-84015724D01*
X110303571Y-84015724D02*
X110482142Y-84015724D01*
X110482142Y-84015724D02*
X110589285Y-84051438D01*
X99428572Y-143880010D02*
X99535715Y-143915724D01*
X99535715Y-143915724D02*
X99714286Y-143915724D01*
X99714286Y-143915724D02*
X99785715Y-143880010D01*
X99785715Y-143880010D02*
X99821429Y-143844295D01*
X99821429Y-143844295D02*
X99857143Y-143772867D01*
X99857143Y-143772867D02*
X99857143Y-143701438D01*
X99857143Y-143701438D02*
X99821429Y-143630010D01*
X99821429Y-143630010D02*
X99785715Y-143594295D01*
X99785715Y-143594295D02*
X99714286Y-143558581D01*
X99714286Y-143558581D02*
X99571429Y-143522867D01*
X99571429Y-143522867D02*
X99500000Y-143487152D01*
X99500000Y-143487152D02*
X99464286Y-143451438D01*
X99464286Y-143451438D02*
X99428572Y-143380010D01*
X99428572Y-143380010D02*
X99428572Y-143308581D01*
X99428572Y-143308581D02*
X99464286Y-143237152D01*
X99464286Y-143237152D02*
X99500000Y-143201438D01*
X99500000Y-143201438D02*
X99571429Y-143165724D01*
X99571429Y-143165724D02*
X99750000Y-143165724D01*
X99750000Y-143165724D02*
X99857143Y-143201438D01*
X100607143Y-143844295D02*
X100571429Y-143880010D01*
X100571429Y-143880010D02*
X100464286Y-143915724D01*
X100464286Y-143915724D02*
X100392858Y-143915724D01*
X100392858Y-143915724D02*
X100285715Y-143880010D01*
X100285715Y-143880010D02*
X100214286Y-143808581D01*
X100214286Y-143808581D02*
X100178572Y-143737152D01*
X100178572Y-143737152D02*
X100142858Y-143594295D01*
X100142858Y-143594295D02*
X100142858Y-143487152D01*
X100142858Y-143487152D02*
X100178572Y-143344295D01*
X100178572Y-143344295D02*
X100214286Y-143272867D01*
X100214286Y-143272867D02*
X100285715Y-143201438D01*
X100285715Y-143201438D02*
X100392858Y-143165724D01*
X100392858Y-143165724D02*
X100464286Y-143165724D01*
X100464286Y-143165724D02*
X100571429Y-143201438D01*
X100571429Y-143201438D02*
X100607143Y-143237152D01*
X100892858Y-143237152D02*
X100928572Y-143201438D01*
X100928572Y-143201438D02*
X101000001Y-143165724D01*
X101000001Y-143165724D02*
X101178572Y-143165724D01*
X101178572Y-143165724D02*
X101250001Y-143201438D01*
X101250001Y-143201438D02*
X101285715Y-143237152D01*
X101285715Y-143237152D02*
X101321429Y-143308581D01*
X101321429Y-143308581D02*
X101321429Y-143380010D01*
X101321429Y-143380010D02*
X101285715Y-143487152D01*
X101285715Y-143487152D02*
X100857143Y-143915724D01*
X100857143Y-143915724D02*
X101321429Y-143915724D01*
X101642858Y-143630010D02*
X102214287Y-143630010D01*
X103142858Y-143522867D02*
X103714287Y-143522867D01*
X103714287Y-143737152D02*
X103142858Y-143737152D01*
X104642858Y-143915724D02*
X104642858Y-143165724D01*
X104642858Y-143165724D02*
X104928572Y-143165724D01*
X104928572Y-143165724D02*
X105000001Y-143201438D01*
X105000001Y-143201438D02*
X105035715Y-143237152D01*
X105035715Y-143237152D02*
X105071429Y-143308581D01*
X105071429Y-143308581D02*
X105071429Y-143415724D01*
X105071429Y-143415724D02*
X105035715Y-143487152D01*
X105035715Y-143487152D02*
X105000001Y-143522867D01*
X105000001Y-143522867D02*
X104928572Y-143558581D01*
X104928572Y-143558581D02*
X104642858Y-143558581D01*
X105357144Y-143701438D02*
X105714287Y-143701438D01*
X105285715Y-143915724D02*
X105535715Y-143165724D01*
X105535715Y-143165724D02*
X105785715Y-143915724D01*
X106035715Y-143915724D02*
X106035715Y-143165724D01*
X106035715Y-143165724D02*
X106464286Y-143915724D01*
X106464286Y-143915724D02*
X106464286Y-143165724D01*
X106821429Y-143522867D02*
X107071429Y-143522867D01*
X107178572Y-143915724D02*
X106821429Y-143915724D01*
X106821429Y-143915724D02*
X106821429Y-143165724D01*
X106821429Y-143165724D02*
X107178572Y-143165724D01*
X107857143Y-143915724D02*
X107500000Y-143915724D01*
X107500000Y-143915724D02*
X107500000Y-143165724D01*
X107928572Y-143987152D02*
X108500000Y-143987152D01*
X108678572Y-143915724D02*
X108678572Y-143165724D01*
X108678572Y-143165724D02*
X109107143Y-143915724D01*
X109107143Y-143915724D02*
X109107143Y-143165724D01*
X109464286Y-143522867D02*
X109714286Y-143522867D01*
X109821429Y-143915724D02*
X109464286Y-143915724D01*
X109464286Y-143915724D02*
X109464286Y-143165724D01*
X109464286Y-143165724D02*
X109821429Y-143165724D01*
X110535714Y-143201438D02*
X110464286Y-143165724D01*
X110464286Y-143165724D02*
X110357143Y-143165724D01*
X110357143Y-143165724D02*
X110250000Y-143201438D01*
X110250000Y-143201438D02*
X110178571Y-143272867D01*
X110178571Y-143272867D02*
X110142857Y-143344295D01*
X110142857Y-143344295D02*
X110107143Y-143487152D01*
X110107143Y-143487152D02*
X110107143Y-143594295D01*
X110107143Y-143594295D02*
X110142857Y-143737152D01*
X110142857Y-143737152D02*
X110178571Y-143808581D01*
X110178571Y-143808581D02*
X110250000Y-143880010D01*
X110250000Y-143880010D02*
X110357143Y-143915724D01*
X110357143Y-143915724D02*
X110428571Y-143915724D01*
X110428571Y-143915724D02*
X110535714Y-143880010D01*
X110535714Y-143880010D02*
X110571428Y-143844295D01*
X110571428Y-143844295D02*
X110571428Y-143594295D01*
X110571428Y-143594295D02*
X110428571Y-143594295D01*
X99410714Y-125880010D02*
X99517857Y-125915724D01*
X99517857Y-125915724D02*
X99696428Y-125915724D01*
X99696428Y-125915724D02*
X99767857Y-125880010D01*
X99767857Y-125880010D02*
X99803571Y-125844295D01*
X99803571Y-125844295D02*
X99839285Y-125772867D01*
X99839285Y-125772867D02*
X99839285Y-125701438D01*
X99839285Y-125701438D02*
X99803571Y-125630010D01*
X99803571Y-125630010D02*
X99767857Y-125594295D01*
X99767857Y-125594295D02*
X99696428Y-125558581D01*
X99696428Y-125558581D02*
X99553571Y-125522867D01*
X99553571Y-125522867D02*
X99482142Y-125487152D01*
X99482142Y-125487152D02*
X99446428Y-125451438D01*
X99446428Y-125451438D02*
X99410714Y-125380010D01*
X99410714Y-125380010D02*
X99410714Y-125308581D01*
X99410714Y-125308581D02*
X99446428Y-125237152D01*
X99446428Y-125237152D02*
X99482142Y-125201438D01*
X99482142Y-125201438D02*
X99553571Y-125165724D01*
X99553571Y-125165724D02*
X99732142Y-125165724D01*
X99732142Y-125165724D02*
X99839285Y-125201438D01*
X100589285Y-125844295D02*
X100553571Y-125880010D01*
X100553571Y-125880010D02*
X100446428Y-125915724D01*
X100446428Y-125915724D02*
X100375000Y-125915724D01*
X100375000Y-125915724D02*
X100267857Y-125880010D01*
X100267857Y-125880010D02*
X100196428Y-125808581D01*
X100196428Y-125808581D02*
X100160714Y-125737152D01*
X100160714Y-125737152D02*
X100125000Y-125594295D01*
X100125000Y-125594295D02*
X100125000Y-125487152D01*
X100125000Y-125487152D02*
X100160714Y-125344295D01*
X100160714Y-125344295D02*
X100196428Y-125272867D01*
X100196428Y-125272867D02*
X100267857Y-125201438D01*
X100267857Y-125201438D02*
X100375000Y-125165724D01*
X100375000Y-125165724D02*
X100446428Y-125165724D01*
X100446428Y-125165724D02*
X100553571Y-125201438D01*
X100553571Y-125201438D02*
X100589285Y-125237152D01*
X100875000Y-125237152D02*
X100910714Y-125201438D01*
X100910714Y-125201438D02*
X100982143Y-125165724D01*
X100982143Y-125165724D02*
X101160714Y-125165724D01*
X101160714Y-125165724D02*
X101232143Y-125201438D01*
X101232143Y-125201438D02*
X101267857Y-125237152D01*
X101267857Y-125237152D02*
X101303571Y-125308581D01*
X101303571Y-125308581D02*
X101303571Y-125380010D01*
X101303571Y-125380010D02*
X101267857Y-125487152D01*
X101267857Y-125487152D02*
X100839285Y-125915724D01*
X100839285Y-125915724D02*
X101303571Y-125915724D01*
X101625000Y-125630010D02*
X102196429Y-125630010D01*
X101910714Y-125915724D02*
X101910714Y-125344295D01*
X103125000Y-125522867D02*
X103696429Y-125522867D01*
X103696429Y-125737152D02*
X103125000Y-125737152D01*
X104625000Y-125915724D02*
X104625000Y-125165724D01*
X104625000Y-125165724D02*
X104910714Y-125165724D01*
X104910714Y-125165724D02*
X104982143Y-125201438D01*
X104982143Y-125201438D02*
X105017857Y-125237152D01*
X105017857Y-125237152D02*
X105053571Y-125308581D01*
X105053571Y-125308581D02*
X105053571Y-125415724D01*
X105053571Y-125415724D02*
X105017857Y-125487152D01*
X105017857Y-125487152D02*
X104982143Y-125522867D01*
X104982143Y-125522867D02*
X104910714Y-125558581D01*
X104910714Y-125558581D02*
X104625000Y-125558581D01*
X105339286Y-125701438D02*
X105696429Y-125701438D01*
X105267857Y-125915724D02*
X105517857Y-125165724D01*
X105517857Y-125165724D02*
X105767857Y-125915724D01*
X106017857Y-125915724D02*
X106017857Y-125165724D01*
X106017857Y-125165724D02*
X106446428Y-125915724D01*
X106446428Y-125915724D02*
X106446428Y-125165724D01*
X106803571Y-125522867D02*
X107053571Y-125522867D01*
X107160714Y-125915724D02*
X106803571Y-125915724D01*
X106803571Y-125915724D02*
X106803571Y-125165724D01*
X106803571Y-125165724D02*
X107160714Y-125165724D01*
X107839285Y-125915724D02*
X107482142Y-125915724D01*
X107482142Y-125915724D02*
X107482142Y-125165724D01*
X107910714Y-125987152D02*
X108482142Y-125987152D01*
X108660714Y-125915724D02*
X108660714Y-125165724D01*
X108660714Y-125165724D02*
X108946428Y-125165724D01*
X108946428Y-125165724D02*
X109017857Y-125201438D01*
X109017857Y-125201438D02*
X109053571Y-125237152D01*
X109053571Y-125237152D02*
X109089285Y-125308581D01*
X109089285Y-125308581D02*
X109089285Y-125415724D01*
X109089285Y-125415724D02*
X109053571Y-125487152D01*
X109053571Y-125487152D02*
X109017857Y-125522867D01*
X109017857Y-125522867D02*
X108946428Y-125558581D01*
X108946428Y-125558581D02*
X108660714Y-125558581D01*
X109553571Y-125165724D02*
X109696428Y-125165724D01*
X109696428Y-125165724D02*
X109767857Y-125201438D01*
X109767857Y-125201438D02*
X109839285Y-125272867D01*
X109839285Y-125272867D02*
X109875000Y-125415724D01*
X109875000Y-125415724D02*
X109875000Y-125665724D01*
X109875000Y-125665724D02*
X109839285Y-125808581D01*
X109839285Y-125808581D02*
X109767857Y-125880010D01*
X109767857Y-125880010D02*
X109696428Y-125915724D01*
X109696428Y-125915724D02*
X109553571Y-125915724D01*
X109553571Y-125915724D02*
X109482143Y-125880010D01*
X109482143Y-125880010D02*
X109410714Y-125808581D01*
X109410714Y-125808581D02*
X109375000Y-125665724D01*
X109375000Y-125665724D02*
X109375000Y-125415724D01*
X109375000Y-125415724D02*
X109410714Y-125272867D01*
X109410714Y-125272867D02*
X109482143Y-125201438D01*
X109482143Y-125201438D02*
X109553571Y-125165724D01*
X110160714Y-125880010D02*
X110267857Y-125915724D01*
X110267857Y-125915724D02*
X110446428Y-125915724D01*
X110446428Y-125915724D02*
X110517857Y-125880010D01*
X110517857Y-125880010D02*
X110553571Y-125844295D01*
X110553571Y-125844295D02*
X110589285Y-125772867D01*
X110589285Y-125772867D02*
X110589285Y-125701438D01*
X110589285Y-125701438D02*
X110553571Y-125630010D01*
X110553571Y-125630010D02*
X110517857Y-125594295D01*
X110517857Y-125594295D02*
X110446428Y-125558581D01*
X110446428Y-125558581D02*
X110303571Y-125522867D01*
X110303571Y-125522867D02*
X110232142Y-125487152D01*
X110232142Y-125487152D02*
X110196428Y-125451438D01*
X110196428Y-125451438D02*
X110160714Y-125380010D01*
X110160714Y-125380010D02*
X110160714Y-125308581D01*
X110160714Y-125308581D02*
X110196428Y-125237152D01*
X110196428Y-125237152D02*
X110232142Y-125201438D01*
X110232142Y-125201438D02*
X110303571Y-125165724D01*
X110303571Y-125165724D02*
X110482142Y-125165724D01*
X110482142Y-125165724D02*
X110589285Y-125201438D01*
D13*
X59238095Y-81454819D02*
X59809523Y-81454819D01*
X59523809Y-82454819D02*
X59523809Y-81454819D01*
X60142857Y-82454819D02*
X60142857Y-81454819D01*
X60142857Y-81454819D02*
X60523809Y-81454819D01*
X60523809Y-81454819D02*
X60619047Y-81502438D01*
X60619047Y-81502438D02*
X60666666Y-81550057D01*
X60666666Y-81550057D02*
X60714285Y-81645295D01*
X60714285Y-81645295D02*
X60714285Y-81788152D01*
X60714285Y-81788152D02*
X60666666Y-81883390D01*
X60666666Y-81883390D02*
X60619047Y-81931009D01*
X60619047Y-81931009D02*
X60523809Y-81978628D01*
X60523809Y-81978628D02*
X60142857Y-81978628D01*
X61666666Y-82454819D02*
X61095238Y-82454819D01*
X61380952Y-82454819D02*
X61380952Y-81454819D01*
X61380952Y-81454819D02*
X61285714Y-81597676D01*
X61285714Y-81597676D02*
X61190476Y-81692914D01*
X61190476Y-81692914D02*
X61095238Y-81740533D01*
X59238095Y-123454819D02*
X59809523Y-123454819D01*
X59523809Y-124454819D02*
X59523809Y-123454819D01*
X60142857Y-124454819D02*
X60142857Y-123454819D01*
X60142857Y-123454819D02*
X60523809Y-123454819D01*
X60523809Y-123454819D02*
X60619047Y-123502438D01*
X60619047Y-123502438D02*
X60666666Y-123550057D01*
X60666666Y-123550057D02*
X60714285Y-123645295D01*
X60714285Y-123645295D02*
X60714285Y-123788152D01*
X60714285Y-123788152D02*
X60666666Y-123883390D01*
X60666666Y-123883390D02*
X60619047Y-123931009D01*
X60619047Y-123931009D02*
X60523809Y-123978628D01*
X60523809Y-123978628D02*
X60142857Y-123978628D01*
X61047619Y-123454819D02*
X61666666Y-123454819D01*
X61666666Y-123454819D02*
X61333333Y-123835771D01*
X61333333Y-123835771D02*
X61476190Y-123835771D01*
X61476190Y-123835771D02*
X61571428Y-123883390D01*
X61571428Y-123883390D02*
X61619047Y-123931009D01*
X61619047Y-123931009D02*
X61666666Y-124026247D01*
X61666666Y-124026247D02*
X61666666Y-124264342D01*
X61666666Y-124264342D02*
X61619047Y-124359580D01*
X61619047Y-124359580D02*
X61571428Y-124407200D01*
X61571428Y-124407200D02*
X61476190Y-124454819D01*
X61476190Y-124454819D02*
X61190476Y-124454819D01*
X61190476Y-124454819D02*
X61095238Y-124407200D01*
X61095238Y-124407200D02*
X61047619Y-124359580D01*
X140761904Y-86181009D02*
X140904761Y-86228628D01*
X140904761Y-86228628D02*
X140952380Y-86276247D01*
X140952380Y-86276247D02*
X140999999Y-86371485D01*
X140999999Y-86371485D02*
X140999999Y-86514342D01*
X140999999Y-86514342D02*
X140952380Y-86609580D01*
X140952380Y-86609580D02*
X140904761Y-86657200D01*
X140904761Y-86657200D02*
X140809523Y-86704819D01*
X140809523Y-86704819D02*
X140428571Y-86704819D01*
X140428571Y-86704819D02*
X140428571Y-85704819D01*
X140428571Y-85704819D02*
X140761904Y-85704819D01*
X140761904Y-85704819D02*
X140857142Y-85752438D01*
X140857142Y-85752438D02*
X140904761Y-85800057D01*
X140904761Y-85800057D02*
X140952380Y-85895295D01*
X140952380Y-85895295D02*
X140952380Y-85990533D01*
X140952380Y-85990533D02*
X140904761Y-86085771D01*
X140904761Y-86085771D02*
X140857142Y-86133390D01*
X140857142Y-86133390D02*
X140761904Y-86181009D01*
X140761904Y-86181009D02*
X140428571Y-86181009D01*
X141428571Y-86181009D02*
X141761904Y-86181009D01*
X141904761Y-86704819D02*
X141428571Y-86704819D01*
X141428571Y-86704819D02*
X141428571Y-85704819D01*
X141428571Y-85704819D02*
X141904761Y-85704819D01*
X142333333Y-86704819D02*
X142333333Y-85704819D01*
X142333333Y-85704819D02*
X142904761Y-86704819D01*
X142904761Y-86704819D02*
X142904761Y-85704819D01*
X143952380Y-86609580D02*
X143904761Y-86657200D01*
X143904761Y-86657200D02*
X143761904Y-86704819D01*
X143761904Y-86704819D02*
X143666666Y-86704819D01*
X143666666Y-86704819D02*
X143523809Y-86657200D01*
X143523809Y-86657200D02*
X143428571Y-86561961D01*
X143428571Y-86561961D02*
X143380952Y-86466723D01*
X143380952Y-86466723D02*
X143333333Y-86276247D01*
X143333333Y-86276247D02*
X143333333Y-86133390D01*
X143333333Y-86133390D02*
X143380952Y-85942914D01*
X143380952Y-85942914D02*
X143428571Y-85847676D01*
X143428571Y-85847676D02*
X143523809Y-85752438D01*
X143523809Y-85752438D02*
X143666666Y-85704819D01*
X143666666Y-85704819D02*
X143761904Y-85704819D01*
X143761904Y-85704819D02*
X143904761Y-85752438D01*
X143904761Y-85752438D02*
X143952380Y-85800057D01*
X144380952Y-86704819D02*
X144380952Y-85704819D01*
X144380952Y-86181009D02*
X144952380Y-86181009D01*
X144952380Y-86704819D02*
X144952380Y-85704819D01*
X145190476Y-86800057D02*
X145952380Y-86800057D01*
X146380952Y-85704819D02*
X146571428Y-85704819D01*
X146571428Y-85704819D02*
X146666666Y-85752438D01*
X146666666Y-85752438D02*
X146761904Y-85847676D01*
X146761904Y-85847676D02*
X146809523Y-86038152D01*
X146809523Y-86038152D02*
X146809523Y-86371485D01*
X146809523Y-86371485D02*
X146761904Y-86561961D01*
X146761904Y-86561961D02*
X146666666Y-86657200D01*
X146666666Y-86657200D02*
X146571428Y-86704819D01*
X146571428Y-86704819D02*
X146380952Y-86704819D01*
X146380952Y-86704819D02*
X146285714Y-86657200D01*
X146285714Y-86657200D02*
X146190476Y-86561961D01*
X146190476Y-86561961D02*
X146142857Y-86371485D01*
X146142857Y-86371485D02*
X146142857Y-86038152D01*
X146142857Y-86038152D02*
X146190476Y-85847676D01*
X146190476Y-85847676D02*
X146285714Y-85752438D01*
X146285714Y-85752438D02*
X146380952Y-85704819D01*
X147238095Y-86704819D02*
X147238095Y-85704819D01*
X147238095Y-85704819D02*
X147809523Y-86704819D01*
X147809523Y-86704819D02*
X147809523Y-85704819D01*
X148761904Y-86704819D02*
X148285714Y-86704819D01*
X148285714Y-86704819D02*
X148285714Y-85704819D01*
X149285714Y-86228628D02*
X149285714Y-86704819D01*
X148952381Y-85704819D02*
X149285714Y-86228628D01*
X149285714Y-86228628D02*
X149619047Y-85704819D01*
X149714286Y-86800057D02*
X150476190Y-86800057D01*
X150714286Y-86704819D02*
X150714286Y-85704819D01*
X150714286Y-85704819D02*
X151095238Y-85704819D01*
X151095238Y-85704819D02*
X151190476Y-85752438D01*
X151190476Y-85752438D02*
X151238095Y-85800057D01*
X151238095Y-85800057D02*
X151285714Y-85895295D01*
X151285714Y-85895295D02*
X151285714Y-86038152D01*
X151285714Y-86038152D02*
X151238095Y-86133390D01*
X151238095Y-86133390D02*
X151190476Y-86181009D01*
X151190476Y-86181009D02*
X151095238Y-86228628D01*
X151095238Y-86228628D02*
X150714286Y-86228628D01*
X151666667Y-86419104D02*
X152142857Y-86419104D01*
X151571429Y-86704819D02*
X151904762Y-85704819D01*
X151904762Y-85704819D02*
X152238095Y-86704819D01*
X152571429Y-86704819D02*
X152571429Y-85704819D01*
X152571429Y-85704819D02*
X153142857Y-86704819D01*
X153142857Y-86704819D02*
X153142857Y-85704819D01*
X153619048Y-86181009D02*
X153952381Y-86181009D01*
X154095238Y-86704819D02*
X153619048Y-86704819D01*
X153619048Y-86704819D02*
X153619048Y-85704819D01*
X153619048Y-85704819D02*
X154095238Y-85704819D01*
X155000000Y-86704819D02*
X154523810Y-86704819D01*
X154523810Y-86704819D02*
X154523810Y-85704819D01*
X155095239Y-86800057D02*
X155857143Y-86800057D01*
X156095239Y-86704819D02*
X156095239Y-85704819D01*
X156095239Y-85704819D02*
X156666667Y-86704819D01*
X156666667Y-86704819D02*
X156666667Y-85704819D01*
X157142858Y-86181009D02*
X157476191Y-86181009D01*
X157619048Y-86704819D02*
X157142858Y-86704819D01*
X157142858Y-86704819D02*
X157142858Y-85704819D01*
X157142858Y-85704819D02*
X157619048Y-85704819D01*
X158571429Y-85752438D02*
X158476191Y-85704819D01*
X158476191Y-85704819D02*
X158333334Y-85704819D01*
X158333334Y-85704819D02*
X158190477Y-85752438D01*
X158190477Y-85752438D02*
X158095239Y-85847676D01*
X158095239Y-85847676D02*
X158047620Y-85942914D01*
X158047620Y-85942914D02*
X158000001Y-86133390D01*
X158000001Y-86133390D02*
X158000001Y-86276247D01*
X158000001Y-86276247D02*
X158047620Y-86466723D01*
X158047620Y-86466723D02*
X158095239Y-86561961D01*
X158095239Y-86561961D02*
X158190477Y-86657200D01*
X158190477Y-86657200D02*
X158333334Y-86704819D01*
X158333334Y-86704819D02*
X158428572Y-86704819D01*
X158428572Y-86704819D02*
X158571429Y-86657200D01*
X158571429Y-86657200D02*
X158619048Y-86609580D01*
X158619048Y-86609580D02*
X158619048Y-86276247D01*
X158619048Y-86276247D02*
X158428572Y-86276247D01*
X148238095Y-81304819D02*
X148809523Y-81304819D01*
X148523809Y-82304819D02*
X148523809Y-81304819D01*
X149142857Y-82304819D02*
X149142857Y-81304819D01*
X149142857Y-81304819D02*
X149523809Y-81304819D01*
X149523809Y-81304819D02*
X149619047Y-81352438D01*
X149619047Y-81352438D02*
X149666666Y-81400057D01*
X149666666Y-81400057D02*
X149714285Y-81495295D01*
X149714285Y-81495295D02*
X149714285Y-81638152D01*
X149714285Y-81638152D02*
X149666666Y-81733390D01*
X149666666Y-81733390D02*
X149619047Y-81781009D01*
X149619047Y-81781009D02*
X149523809Y-81828628D01*
X149523809Y-81828628D02*
X149142857Y-81828628D01*
X150571428Y-81638152D02*
X150571428Y-82304819D01*
X150333333Y-81257200D02*
X150095238Y-81971485D01*
X150095238Y-81971485D02*
X150714285Y-81971485D01*
X51738094Y-139181009D02*
X51880951Y-139228628D01*
X51880951Y-139228628D02*
X51928570Y-139276247D01*
X51928570Y-139276247D02*
X51976189Y-139371485D01*
X51976189Y-139371485D02*
X51976189Y-139514342D01*
X51976189Y-139514342D02*
X51928570Y-139609580D01*
X51928570Y-139609580D02*
X51880951Y-139657200D01*
X51880951Y-139657200D02*
X51785713Y-139704819D01*
X51785713Y-139704819D02*
X51404761Y-139704819D01*
X51404761Y-139704819D02*
X51404761Y-138704819D01*
X51404761Y-138704819D02*
X51738094Y-138704819D01*
X51738094Y-138704819D02*
X51833332Y-138752438D01*
X51833332Y-138752438D02*
X51880951Y-138800057D01*
X51880951Y-138800057D02*
X51928570Y-138895295D01*
X51928570Y-138895295D02*
X51928570Y-138990533D01*
X51928570Y-138990533D02*
X51880951Y-139085771D01*
X51880951Y-139085771D02*
X51833332Y-139133390D01*
X51833332Y-139133390D02*
X51738094Y-139181009D01*
X51738094Y-139181009D02*
X51404761Y-139181009D01*
X52404761Y-139181009D02*
X52738094Y-139181009D01*
X52880951Y-139704819D02*
X52404761Y-139704819D01*
X52404761Y-139704819D02*
X52404761Y-138704819D01*
X52404761Y-138704819D02*
X52880951Y-138704819D01*
X53309523Y-139704819D02*
X53309523Y-138704819D01*
X53309523Y-138704819D02*
X53880951Y-139704819D01*
X53880951Y-139704819D02*
X53880951Y-138704819D01*
X54928570Y-139609580D02*
X54880951Y-139657200D01*
X54880951Y-139657200D02*
X54738094Y-139704819D01*
X54738094Y-139704819D02*
X54642856Y-139704819D01*
X54642856Y-139704819D02*
X54499999Y-139657200D01*
X54499999Y-139657200D02*
X54404761Y-139561961D01*
X54404761Y-139561961D02*
X54357142Y-139466723D01*
X54357142Y-139466723D02*
X54309523Y-139276247D01*
X54309523Y-139276247D02*
X54309523Y-139133390D01*
X54309523Y-139133390D02*
X54357142Y-138942914D01*
X54357142Y-138942914D02*
X54404761Y-138847676D01*
X54404761Y-138847676D02*
X54499999Y-138752438D01*
X54499999Y-138752438D02*
X54642856Y-138704819D01*
X54642856Y-138704819D02*
X54738094Y-138704819D01*
X54738094Y-138704819D02*
X54880951Y-138752438D01*
X54880951Y-138752438D02*
X54928570Y-138800057D01*
X55357142Y-139704819D02*
X55357142Y-138704819D01*
X55357142Y-139181009D02*
X55928570Y-139181009D01*
X55928570Y-139704819D02*
X55928570Y-138704819D01*
X56166666Y-139800057D02*
X56928570Y-139800057D01*
X57357142Y-138704819D02*
X57547618Y-138704819D01*
X57547618Y-138704819D02*
X57642856Y-138752438D01*
X57642856Y-138752438D02*
X57738094Y-138847676D01*
X57738094Y-138847676D02*
X57785713Y-139038152D01*
X57785713Y-139038152D02*
X57785713Y-139371485D01*
X57785713Y-139371485D02*
X57738094Y-139561961D01*
X57738094Y-139561961D02*
X57642856Y-139657200D01*
X57642856Y-139657200D02*
X57547618Y-139704819D01*
X57547618Y-139704819D02*
X57357142Y-139704819D01*
X57357142Y-139704819D02*
X57261904Y-139657200D01*
X57261904Y-139657200D02*
X57166666Y-139561961D01*
X57166666Y-139561961D02*
X57119047Y-139371485D01*
X57119047Y-139371485D02*
X57119047Y-139038152D01*
X57119047Y-139038152D02*
X57166666Y-138847676D01*
X57166666Y-138847676D02*
X57261904Y-138752438D01*
X57261904Y-138752438D02*
X57357142Y-138704819D01*
X58214285Y-139704819D02*
X58214285Y-138704819D01*
X58214285Y-138704819D02*
X58785713Y-139704819D01*
X58785713Y-139704819D02*
X58785713Y-138704819D01*
X59738094Y-139704819D02*
X59261904Y-139704819D01*
X59261904Y-139704819D02*
X59261904Y-138704819D01*
X60261904Y-139228628D02*
X60261904Y-139704819D01*
X59928571Y-138704819D02*
X60261904Y-139228628D01*
X60261904Y-139228628D02*
X60595237Y-138704819D01*
X60690476Y-139800057D02*
X61452380Y-139800057D01*
X61690476Y-139704819D02*
X61690476Y-138704819D01*
X61690476Y-138704819D02*
X62071428Y-138704819D01*
X62071428Y-138704819D02*
X62166666Y-138752438D01*
X62166666Y-138752438D02*
X62214285Y-138800057D01*
X62214285Y-138800057D02*
X62261904Y-138895295D01*
X62261904Y-138895295D02*
X62261904Y-139038152D01*
X62261904Y-139038152D02*
X62214285Y-139133390D01*
X62214285Y-139133390D02*
X62166666Y-139181009D01*
X62166666Y-139181009D02*
X62071428Y-139228628D01*
X62071428Y-139228628D02*
X61690476Y-139228628D01*
X62642857Y-139419104D02*
X63119047Y-139419104D01*
X62547619Y-139704819D02*
X62880952Y-138704819D01*
X62880952Y-138704819D02*
X63214285Y-139704819D01*
X63547619Y-139704819D02*
X63547619Y-138704819D01*
X63547619Y-138704819D02*
X64119047Y-139704819D01*
X64119047Y-139704819D02*
X64119047Y-138704819D01*
X64595238Y-139181009D02*
X64928571Y-139181009D01*
X65071428Y-139704819D02*
X64595238Y-139704819D01*
X64595238Y-139704819D02*
X64595238Y-138704819D01*
X64595238Y-138704819D02*
X65071428Y-138704819D01*
X65976190Y-139704819D02*
X65500000Y-139704819D01*
X65500000Y-139704819D02*
X65500000Y-138704819D01*
X66071429Y-139800057D02*
X66833333Y-139800057D01*
X67071429Y-139704819D02*
X67071429Y-138704819D01*
X67071429Y-138704819D02*
X67452381Y-138704819D01*
X67452381Y-138704819D02*
X67547619Y-138752438D01*
X67547619Y-138752438D02*
X67595238Y-138800057D01*
X67595238Y-138800057D02*
X67642857Y-138895295D01*
X67642857Y-138895295D02*
X67642857Y-139038152D01*
X67642857Y-139038152D02*
X67595238Y-139133390D01*
X67595238Y-139133390D02*
X67547619Y-139181009D01*
X67547619Y-139181009D02*
X67452381Y-139228628D01*
X67452381Y-139228628D02*
X67071429Y-139228628D01*
X68261905Y-138704819D02*
X68452381Y-138704819D01*
X68452381Y-138704819D02*
X68547619Y-138752438D01*
X68547619Y-138752438D02*
X68642857Y-138847676D01*
X68642857Y-138847676D02*
X68690476Y-139038152D01*
X68690476Y-139038152D02*
X68690476Y-139371485D01*
X68690476Y-139371485D02*
X68642857Y-139561961D01*
X68642857Y-139561961D02*
X68547619Y-139657200D01*
X68547619Y-139657200D02*
X68452381Y-139704819D01*
X68452381Y-139704819D02*
X68261905Y-139704819D01*
X68261905Y-139704819D02*
X68166667Y-139657200D01*
X68166667Y-139657200D02*
X68071429Y-139561961D01*
X68071429Y-139561961D02*
X68023810Y-139371485D01*
X68023810Y-139371485D02*
X68023810Y-139038152D01*
X68023810Y-139038152D02*
X68071429Y-138847676D01*
X68071429Y-138847676D02*
X68166667Y-138752438D01*
X68166667Y-138752438D02*
X68261905Y-138704819D01*
X69071429Y-139657200D02*
X69214286Y-139704819D01*
X69214286Y-139704819D02*
X69452381Y-139704819D01*
X69452381Y-139704819D02*
X69547619Y-139657200D01*
X69547619Y-139657200D02*
X69595238Y-139609580D01*
X69595238Y-139609580D02*
X69642857Y-139514342D01*
X69642857Y-139514342D02*
X69642857Y-139419104D01*
X69642857Y-139419104D02*
X69595238Y-139323866D01*
X69595238Y-139323866D02*
X69547619Y-139276247D01*
X69547619Y-139276247D02*
X69452381Y-139228628D01*
X69452381Y-139228628D02*
X69261905Y-139181009D01*
X69261905Y-139181009D02*
X69166667Y-139133390D01*
X69166667Y-139133390D02*
X69119048Y-139085771D01*
X69119048Y-139085771D02*
X69071429Y-138990533D01*
X69071429Y-138990533D02*
X69071429Y-138895295D01*
X69071429Y-138895295D02*
X69119048Y-138800057D01*
X69119048Y-138800057D02*
X69166667Y-138752438D01*
X69166667Y-138752438D02*
X69261905Y-138704819D01*
X69261905Y-138704819D02*
X69500000Y-138704819D01*
X69500000Y-138704819D02*
X69642857Y-138752438D01*
X59238095Y-134304819D02*
X59809523Y-134304819D01*
X59523809Y-135304819D02*
X59523809Y-134304819D01*
X60142857Y-135304819D02*
X60142857Y-134304819D01*
X60142857Y-134304819D02*
X60523809Y-134304819D01*
X60523809Y-134304819D02*
X60619047Y-134352438D01*
X60619047Y-134352438D02*
X60666666Y-134400057D01*
X60666666Y-134400057D02*
X60714285Y-134495295D01*
X60714285Y-134495295D02*
X60714285Y-134638152D01*
X60714285Y-134638152D02*
X60666666Y-134733390D01*
X60666666Y-134733390D02*
X60619047Y-134781009D01*
X60619047Y-134781009D02*
X60523809Y-134828628D01*
X60523809Y-134828628D02*
X60142857Y-134828628D01*
X61619047Y-134304819D02*
X61142857Y-134304819D01*
X61142857Y-134304819D02*
X61095238Y-134781009D01*
X61095238Y-134781009D02*
X61142857Y-134733390D01*
X61142857Y-134733390D02*
X61238095Y-134685771D01*
X61238095Y-134685771D02*
X61476190Y-134685771D01*
X61476190Y-134685771D02*
X61571428Y-134733390D01*
X61571428Y-134733390D02*
X61619047Y-134781009D01*
X61619047Y-134781009D02*
X61666666Y-134876247D01*
X61666666Y-134876247D02*
X61666666Y-135114342D01*
X61666666Y-135114342D02*
X61619047Y-135209580D01*
X61619047Y-135209580D02*
X61571428Y-135257200D01*
X61571428Y-135257200D02*
X61476190Y-135304819D01*
X61476190Y-135304819D02*
X61238095Y-135304819D01*
X61238095Y-135304819D02*
X61142857Y-135257200D01*
X61142857Y-135257200D02*
X61095238Y-135209580D01*
X61738095Y-62954819D02*
X61738095Y-61954819D01*
X61738095Y-62431009D02*
X62309523Y-62431009D01*
X62309523Y-62954819D02*
X62309523Y-61954819D01*
X63309523Y-62954819D02*
X62738095Y-62954819D01*
X63023809Y-62954819D02*
X63023809Y-61954819D01*
X63023809Y-61954819D02*
X62928571Y-62097676D01*
X62928571Y-62097676D02*
X62833333Y-62192914D01*
X62833333Y-62192914D02*
X62738095Y-62240533D01*
X146738095Y-62954819D02*
X146738095Y-61954819D01*
X146738095Y-62431009D02*
X147309523Y-62431009D01*
X147309523Y-62954819D02*
X147309523Y-61954819D01*
X147738095Y-62050057D02*
X147785714Y-62002438D01*
X147785714Y-62002438D02*
X147880952Y-61954819D01*
X147880952Y-61954819D02*
X148119047Y-61954819D01*
X148119047Y-61954819D02*
X148214285Y-62002438D01*
X148214285Y-62002438D02*
X148261904Y-62050057D01*
X148261904Y-62050057D02*
X148309523Y-62145295D01*
X148309523Y-62145295D02*
X148309523Y-62240533D01*
X148309523Y-62240533D02*
X148261904Y-62383390D01*
X148261904Y-62383390D02*
X147690476Y-62954819D01*
X147690476Y-62954819D02*
X148309523Y-62954819D01*
X61738095Y-147954819D02*
X61738095Y-146954819D01*
X61738095Y-147431009D02*
X62309523Y-147431009D01*
X62309523Y-147954819D02*
X62309523Y-146954819D01*
X62690476Y-146954819D02*
X63309523Y-146954819D01*
X63309523Y-146954819D02*
X62976190Y-147335771D01*
X62976190Y-147335771D02*
X63119047Y-147335771D01*
X63119047Y-147335771D02*
X63214285Y-147383390D01*
X63214285Y-147383390D02*
X63261904Y-147431009D01*
X63261904Y-147431009D02*
X63309523Y-147526247D01*
X63309523Y-147526247D02*
X63309523Y-147764342D01*
X63309523Y-147764342D02*
X63261904Y-147859580D01*
X63261904Y-147859580D02*
X63214285Y-147907200D01*
X63214285Y-147907200D02*
X63119047Y-147954819D01*
X63119047Y-147954819D02*
X62833333Y-147954819D01*
X62833333Y-147954819D02*
X62738095Y-147907200D01*
X62738095Y-147907200D02*
X62690476Y-147859580D01*
X146738095Y-147954819D02*
X146738095Y-146954819D01*
X146738095Y-147431009D02*
X147309523Y-147431009D01*
X147309523Y-147954819D02*
X147309523Y-146954819D01*
X148214285Y-147288152D02*
X148214285Y-147954819D01*
X147976190Y-146907200D02*
X147738095Y-147621485D01*
X147738095Y-147621485D02*
X148357142Y-147621485D01*
%TO.C,SC1*%
D11*
X64925000Y-64350000D02*
X145075000Y-64350000D01*
X145075000Y-104500000D01*
X64925000Y-104500000D01*
X64925000Y-64350000D01*
%TO.C,SC2*%
X64925000Y-105500000D02*
X145075000Y-105500000D01*
X145075000Y-145650000D01*
X64925000Y-145650000D01*
X64925000Y-105500000D01*
%TD*%
M02*
