%TF.GenerationSoftware,KiCad,Pcbnew,10.0.3*%
%TF.CreationDate,2026-05-28T18:34:06+01:00*%
%TF.ProjectId,ICARUS_1U_Solar_Panel_PCB_v0p7,49434152-5553-45f3-9155-5f536f6c6172,0.7*%
%TF.SameCoordinates,Original*%
%TF.FileFunction,Legend,Bot*%
%TF.FilePolarity,Positive*%
%FSLAX46Y46*%
G04 Gerber Fmt 4.6, Leading zero omitted, Abs format (unit mm)*
G04 Created by KiCad (PCBNEW 10.0.3) date 2026-05-28 18:34:06*
%MOMM*%
%LPD*%
G01*
G04 APERTURE LIST*
%ADD10C,0.120000*%
G04 APERTURE END LIST*
D10*
X117152380Y-154544807D02*
X116885714Y-154544807D01*
X116771428Y-154963855D02*
X117152380Y-154963855D01*
X117152380Y-154963855D02*
X117152380Y-154163855D01*
X117152380Y-154163855D02*
X116771428Y-154163855D01*
X116428570Y-154963855D02*
X116428570Y-154163855D01*
X116428570Y-154163855D02*
X116123808Y-154163855D01*
X116123808Y-154163855D02*
X116047618Y-154201950D01*
X116047618Y-154201950D02*
X116009523Y-154240045D01*
X116009523Y-154240045D02*
X115971427Y-154316236D01*
X115971427Y-154316236D02*
X115971427Y-154430521D01*
X115971427Y-154430521D02*
X116009523Y-154506712D01*
X116009523Y-154506712D02*
X116047618Y-154544807D01*
X116047618Y-154544807D02*
X116123808Y-154582902D01*
X116123808Y-154582902D02*
X116428570Y-154582902D01*
X115666666Y-154925760D02*
X115552380Y-154963855D01*
X115552380Y-154963855D02*
X115361904Y-154963855D01*
X115361904Y-154963855D02*
X115285713Y-154925760D01*
X115285713Y-154925760D02*
X115247618Y-154887664D01*
X115247618Y-154887664D02*
X115209523Y-154811474D01*
X115209523Y-154811474D02*
X115209523Y-154735283D01*
X115209523Y-154735283D02*
X115247618Y-154659093D01*
X115247618Y-154659093D02*
X115285713Y-154620998D01*
X115285713Y-154620998D02*
X115361904Y-154582902D01*
X115361904Y-154582902D02*
X115514285Y-154544807D01*
X115514285Y-154544807D02*
X115590475Y-154506712D01*
X115590475Y-154506712D02*
X115628570Y-154468617D01*
X115628570Y-154468617D02*
X115666666Y-154392426D01*
X115666666Y-154392426D02*
X115666666Y-154316236D01*
X115666666Y-154316236D02*
X115628570Y-154240045D01*
X115628570Y-154240045D02*
X115590475Y-154201950D01*
X115590475Y-154201950D02*
X115514285Y-154163855D01*
X115514285Y-154163855D02*
X115323808Y-154163855D01*
X115323808Y-154163855D02*
X115209523Y-154201950D01*
X114257141Y-154963855D02*
X114257141Y-154163855D01*
X113304761Y-154925760D02*
X113190475Y-154963855D01*
X113190475Y-154963855D02*
X112999999Y-154963855D01*
X112999999Y-154963855D02*
X112923808Y-154925760D01*
X112923808Y-154925760D02*
X112885713Y-154887664D01*
X112885713Y-154887664D02*
X112847618Y-154811474D01*
X112847618Y-154811474D02*
X112847618Y-154735283D01*
X112847618Y-154735283D02*
X112885713Y-154659093D01*
X112885713Y-154659093D02*
X112923808Y-154620998D01*
X112923808Y-154620998D02*
X112999999Y-154582902D01*
X112999999Y-154582902D02*
X113152380Y-154544807D01*
X113152380Y-154544807D02*
X113228570Y-154506712D01*
X113228570Y-154506712D02*
X113266665Y-154468617D01*
X113266665Y-154468617D02*
X113304761Y-154392426D01*
X113304761Y-154392426D02*
X113304761Y-154316236D01*
X113304761Y-154316236D02*
X113266665Y-154240045D01*
X113266665Y-154240045D02*
X113228570Y-154201950D01*
X113228570Y-154201950D02*
X113152380Y-154163855D01*
X113152380Y-154163855D02*
X112961903Y-154163855D01*
X112961903Y-154163855D02*
X112847618Y-154201950D01*
X112352379Y-154163855D02*
X112199998Y-154163855D01*
X112199998Y-154163855D02*
X112123808Y-154201950D01*
X112123808Y-154201950D02*
X112047617Y-154278140D01*
X112047617Y-154278140D02*
X112009522Y-154430521D01*
X112009522Y-154430521D02*
X112009522Y-154697188D01*
X112009522Y-154697188D02*
X112047617Y-154849569D01*
X112047617Y-154849569D02*
X112123808Y-154925760D01*
X112123808Y-154925760D02*
X112199998Y-154963855D01*
X112199998Y-154963855D02*
X112352379Y-154963855D01*
X112352379Y-154963855D02*
X112428570Y-154925760D01*
X112428570Y-154925760D02*
X112504760Y-154849569D01*
X112504760Y-154849569D02*
X112542856Y-154697188D01*
X112542856Y-154697188D02*
X112542856Y-154430521D01*
X112542856Y-154430521D02*
X112504760Y-154278140D01*
X112504760Y-154278140D02*
X112428570Y-154201950D01*
X112428570Y-154201950D02*
X112352379Y-154163855D01*
X111285713Y-154963855D02*
X111666665Y-154963855D01*
X111666665Y-154963855D02*
X111666665Y-154163855D01*
X111057142Y-154735283D02*
X110676189Y-154735283D01*
X111133332Y-154963855D02*
X110866665Y-154163855D01*
X110866665Y-154163855D02*
X110599999Y-154963855D01*
X109876189Y-154963855D02*
X110142856Y-154582902D01*
X110333332Y-154963855D02*
X110333332Y-154163855D01*
X110333332Y-154163855D02*
X110028570Y-154163855D01*
X110028570Y-154163855D02*
X109952380Y-154201950D01*
X109952380Y-154201950D02*
X109914285Y-154240045D01*
X109914285Y-154240045D02*
X109876189Y-154316236D01*
X109876189Y-154316236D02*
X109876189Y-154430521D01*
X109876189Y-154430521D02*
X109914285Y-154506712D01*
X109914285Y-154506712D02*
X109952380Y-154544807D01*
X109952380Y-154544807D02*
X110028570Y-154582902D01*
X110028570Y-154582902D02*
X110333332Y-154582902D01*
X109533332Y-154887664D02*
X109495237Y-154925760D01*
X109495237Y-154925760D02*
X109533332Y-154963855D01*
X109533332Y-154963855D02*
X109571428Y-154925760D01*
X109571428Y-154925760D02*
X109533332Y-154887664D01*
X109533332Y-154887664D02*
X109533332Y-154963855D01*
X109533332Y-154468617D02*
X109495237Y-154506712D01*
X109495237Y-154506712D02*
X109533332Y-154544807D01*
X109533332Y-154544807D02*
X109571428Y-154506712D01*
X109571428Y-154506712D02*
X109533332Y-154468617D01*
X109533332Y-154468617D02*
X109533332Y-154544807D01*
X108542856Y-154963855D02*
X108542856Y-154163855D01*
X108542856Y-154163855D02*
X108238094Y-154163855D01*
X108238094Y-154163855D02*
X108161904Y-154201950D01*
X108161904Y-154201950D02*
X108123809Y-154240045D01*
X108123809Y-154240045D02*
X108085713Y-154316236D01*
X108085713Y-154316236D02*
X108085713Y-154430521D01*
X108085713Y-154430521D02*
X108123809Y-154506712D01*
X108123809Y-154506712D02*
X108161904Y-154544807D01*
X108161904Y-154544807D02*
X108238094Y-154582902D01*
X108238094Y-154582902D02*
X108542856Y-154582902D01*
X107323809Y-154963855D02*
X107780952Y-154963855D01*
X107552380Y-154963855D02*
X107552380Y-154163855D01*
X107552380Y-154163855D02*
X107628571Y-154278140D01*
X107628571Y-154278140D02*
X107704761Y-154354331D01*
X107704761Y-154354331D02*
X107780952Y-154392426D01*
X106409523Y-154125760D02*
X107095237Y-155154331D01*
X106142856Y-154963855D02*
X106142856Y-154163855D01*
X106142856Y-154163855D02*
X105838094Y-154163855D01*
X105838094Y-154163855D02*
X105761904Y-154201950D01*
X105761904Y-154201950D02*
X105723809Y-154240045D01*
X105723809Y-154240045D02*
X105685713Y-154316236D01*
X105685713Y-154316236D02*
X105685713Y-154430521D01*
X105685713Y-154430521D02*
X105723809Y-154506712D01*
X105723809Y-154506712D02*
X105761904Y-154544807D01*
X105761904Y-154544807D02*
X105838094Y-154582902D01*
X105838094Y-154582902D02*
X106142856Y-154582902D01*
X105380952Y-154240045D02*
X105342856Y-154201950D01*
X105342856Y-154201950D02*
X105266666Y-154163855D01*
X105266666Y-154163855D02*
X105076190Y-154163855D01*
X105076190Y-154163855D02*
X104999999Y-154201950D01*
X104999999Y-154201950D02*
X104961904Y-154240045D01*
X104961904Y-154240045D02*
X104923809Y-154316236D01*
X104923809Y-154316236D02*
X104923809Y-154392426D01*
X104923809Y-154392426D02*
X104961904Y-154506712D01*
X104961904Y-154506712D02*
X105419047Y-154963855D01*
X105419047Y-154963855D02*
X104923809Y-154963855D01*
X104580951Y-154544807D02*
X103971428Y-154544807D01*
X103971428Y-154773379D02*
X104580951Y-154773379D01*
X103590475Y-154963855D02*
X103590475Y-154163855D01*
X103590475Y-154163855D02*
X103285713Y-154163855D01*
X103285713Y-154163855D02*
X103209523Y-154201950D01*
X103209523Y-154201950D02*
X103171428Y-154240045D01*
X103171428Y-154240045D02*
X103133332Y-154316236D01*
X103133332Y-154316236D02*
X103133332Y-154430521D01*
X103133332Y-154430521D02*
X103171428Y-154506712D01*
X103171428Y-154506712D02*
X103209523Y-154544807D01*
X103209523Y-154544807D02*
X103285713Y-154582902D01*
X103285713Y-154582902D02*
X103590475Y-154582902D01*
X102904761Y-154163855D02*
X102638094Y-154963855D01*
X102638094Y-154963855D02*
X102371428Y-154163855D01*
X102104761Y-154659093D02*
X101495238Y-154659093D01*
X99895237Y-154963855D02*
X99895237Y-154163855D01*
X99895237Y-154163855D02*
X99590475Y-154163855D01*
X99590475Y-154163855D02*
X99514285Y-154201950D01*
X99514285Y-154201950D02*
X99476190Y-154240045D01*
X99476190Y-154240045D02*
X99438094Y-154316236D01*
X99438094Y-154316236D02*
X99438094Y-154430521D01*
X99438094Y-154430521D02*
X99476190Y-154506712D01*
X99476190Y-154506712D02*
X99514285Y-154544807D01*
X99514285Y-154544807D02*
X99590475Y-154582902D01*
X99590475Y-154582902D02*
X99895237Y-154582902D01*
X99171428Y-154163855D02*
X98676190Y-154163855D01*
X98676190Y-154163855D02*
X98942856Y-154468617D01*
X98942856Y-154468617D02*
X98828571Y-154468617D01*
X98828571Y-154468617D02*
X98752380Y-154506712D01*
X98752380Y-154506712D02*
X98714285Y-154544807D01*
X98714285Y-154544807D02*
X98676190Y-154620998D01*
X98676190Y-154620998D02*
X98676190Y-154811474D01*
X98676190Y-154811474D02*
X98714285Y-154887664D01*
X98714285Y-154887664D02*
X98752380Y-154925760D01*
X98752380Y-154925760D02*
X98828571Y-154963855D01*
X98828571Y-154963855D02*
X99057142Y-154963855D01*
X99057142Y-154963855D02*
X99133333Y-154925760D01*
X99133333Y-154925760D02*
X99171428Y-154887664D01*
X97761904Y-154125760D02*
X98447618Y-155154331D01*
X97495237Y-154963855D02*
X97495237Y-154163855D01*
X97495237Y-154163855D02*
X97190475Y-154163855D01*
X97190475Y-154163855D02*
X97114285Y-154201950D01*
X97114285Y-154201950D02*
X97076190Y-154240045D01*
X97076190Y-154240045D02*
X97038094Y-154316236D01*
X97038094Y-154316236D02*
X97038094Y-154430521D01*
X97038094Y-154430521D02*
X97076190Y-154506712D01*
X97076190Y-154506712D02*
X97114285Y-154544807D01*
X97114285Y-154544807D02*
X97190475Y-154582902D01*
X97190475Y-154582902D02*
X97495237Y-154582902D01*
X96352380Y-154430521D02*
X96352380Y-154963855D01*
X96542856Y-154125760D02*
X96733333Y-154697188D01*
X96733333Y-154697188D02*
X96238094Y-154697188D01*
X95933332Y-154544807D02*
X95323809Y-154544807D01*
X95323809Y-154773379D02*
X95933332Y-154773379D01*
X94942856Y-154963855D02*
X94942856Y-154163855D01*
X94942856Y-154163855D02*
X94638094Y-154163855D01*
X94638094Y-154163855D02*
X94561904Y-154201950D01*
X94561904Y-154201950D02*
X94523809Y-154240045D01*
X94523809Y-154240045D02*
X94485713Y-154316236D01*
X94485713Y-154316236D02*
X94485713Y-154430521D01*
X94485713Y-154430521D02*
X94523809Y-154506712D01*
X94523809Y-154506712D02*
X94561904Y-154544807D01*
X94561904Y-154544807D02*
X94638094Y-154582902D01*
X94638094Y-154582902D02*
X94942856Y-154582902D01*
X94257142Y-154163855D02*
X93990475Y-154963855D01*
X93990475Y-154963855D02*
X93723809Y-154163855D01*
X93457142Y-154659093D02*
X92847619Y-154659093D01*
X93152380Y-154963855D02*
X93152380Y-154354331D01*
X117666666Y-156363855D02*
X117399999Y-157163855D01*
X117399999Y-157163855D02*
X117133333Y-156363855D01*
X116866666Y-156744807D02*
X116600000Y-156744807D01*
X116485714Y-157163855D02*
X116866666Y-157163855D01*
X116866666Y-157163855D02*
X116866666Y-156363855D01*
X116866666Y-156363855D02*
X116485714Y-156363855D01*
X115685713Y-157163855D02*
X115952380Y-156782902D01*
X116142856Y-157163855D02*
X116142856Y-156363855D01*
X116142856Y-156363855D02*
X115838094Y-156363855D01*
X115838094Y-156363855D02*
X115761904Y-156401950D01*
X115761904Y-156401950D02*
X115723809Y-156440045D01*
X115723809Y-156440045D02*
X115685713Y-156516236D01*
X115685713Y-156516236D02*
X115685713Y-156630521D01*
X115685713Y-156630521D02*
X115723809Y-156706712D01*
X115723809Y-156706712D02*
X115761904Y-156744807D01*
X115761904Y-156744807D02*
X115838094Y-156782902D01*
X115838094Y-156782902D02*
X116142856Y-156782902D01*
X115342856Y-157163855D02*
X115342856Y-156363855D01*
X114695238Y-156744807D02*
X114961904Y-156744807D01*
X114961904Y-157163855D02*
X114961904Y-156363855D01*
X114961904Y-156363855D02*
X114580952Y-156363855D01*
X114123809Y-156782902D02*
X114123809Y-157163855D01*
X114390476Y-156363855D02*
X114123809Y-156782902D01*
X114123809Y-156782902D02*
X113857143Y-156363855D01*
X112980952Y-157163855D02*
X112980952Y-156363855D01*
X112980952Y-156744807D02*
X112523809Y-156744807D01*
X112523809Y-157163855D02*
X112523809Y-156363855D01*
X112180953Y-156935283D02*
X111800000Y-156935283D01*
X112257143Y-157163855D02*
X111990476Y-156363855D01*
X111990476Y-156363855D02*
X111723810Y-157163855D01*
X111000000Y-157163855D02*
X111266667Y-156782902D01*
X111457143Y-157163855D02*
X111457143Y-156363855D01*
X111457143Y-156363855D02*
X111152381Y-156363855D01*
X111152381Y-156363855D02*
X111076191Y-156401950D01*
X111076191Y-156401950D02*
X111038096Y-156440045D01*
X111038096Y-156440045D02*
X111000000Y-156516236D01*
X111000000Y-156516236D02*
X111000000Y-156630521D01*
X111000000Y-156630521D02*
X111038096Y-156706712D01*
X111038096Y-156706712D02*
X111076191Y-156744807D01*
X111076191Y-156744807D02*
X111152381Y-156782902D01*
X111152381Y-156782902D02*
X111457143Y-156782902D01*
X110657143Y-157163855D02*
X110657143Y-156363855D01*
X110657143Y-156363855D02*
X110200000Y-157163855D01*
X110200000Y-157163855D02*
X110200000Y-156363855D01*
X109819048Y-156744807D02*
X109552382Y-156744807D01*
X109438096Y-157163855D02*
X109819048Y-157163855D01*
X109819048Y-157163855D02*
X109819048Y-156363855D01*
X109819048Y-156363855D02*
X109438096Y-156363855D01*
X109133334Y-157125760D02*
X109019048Y-157163855D01*
X109019048Y-157163855D02*
X108828572Y-157163855D01*
X108828572Y-157163855D02*
X108752381Y-157125760D01*
X108752381Y-157125760D02*
X108714286Y-157087664D01*
X108714286Y-157087664D02*
X108676191Y-157011474D01*
X108676191Y-157011474D02*
X108676191Y-156935283D01*
X108676191Y-156935283D02*
X108714286Y-156859093D01*
X108714286Y-156859093D02*
X108752381Y-156820998D01*
X108752381Y-156820998D02*
X108828572Y-156782902D01*
X108828572Y-156782902D02*
X108980953Y-156744807D01*
X108980953Y-156744807D02*
X109057143Y-156706712D01*
X109057143Y-156706712D02*
X109095238Y-156668617D01*
X109095238Y-156668617D02*
X109133334Y-156592426D01*
X109133334Y-156592426D02*
X109133334Y-156516236D01*
X109133334Y-156516236D02*
X109095238Y-156440045D01*
X109095238Y-156440045D02*
X109057143Y-156401950D01*
X109057143Y-156401950D02*
X108980953Y-156363855D01*
X108980953Y-156363855D02*
X108790476Y-156363855D01*
X108790476Y-156363855D02*
X108676191Y-156401950D01*
X108371429Y-157125760D02*
X108257143Y-157163855D01*
X108257143Y-157163855D02*
X108066667Y-157163855D01*
X108066667Y-157163855D02*
X107990476Y-157125760D01*
X107990476Y-157125760D02*
X107952381Y-157087664D01*
X107952381Y-157087664D02*
X107914286Y-157011474D01*
X107914286Y-157011474D02*
X107914286Y-156935283D01*
X107914286Y-156935283D02*
X107952381Y-156859093D01*
X107952381Y-156859093D02*
X107990476Y-156820998D01*
X107990476Y-156820998D02*
X108066667Y-156782902D01*
X108066667Y-156782902D02*
X108219048Y-156744807D01*
X108219048Y-156744807D02*
X108295238Y-156706712D01*
X108295238Y-156706712D02*
X108333333Y-156668617D01*
X108333333Y-156668617D02*
X108371429Y-156592426D01*
X108371429Y-156592426D02*
X108371429Y-156516236D01*
X108371429Y-156516236D02*
X108333333Y-156440045D01*
X108333333Y-156440045D02*
X108295238Y-156401950D01*
X108295238Y-156401950D02*
X108219048Y-156363855D01*
X108219048Y-156363855D02*
X108028571Y-156363855D01*
X108028571Y-156363855D02*
X107914286Y-156401950D01*
X106504761Y-157087664D02*
X106542857Y-157125760D01*
X106542857Y-157125760D02*
X106657142Y-157163855D01*
X106657142Y-157163855D02*
X106733333Y-157163855D01*
X106733333Y-157163855D02*
X106847619Y-157125760D01*
X106847619Y-157125760D02*
X106923809Y-157049569D01*
X106923809Y-157049569D02*
X106961904Y-156973379D01*
X106961904Y-156973379D02*
X107000000Y-156820998D01*
X107000000Y-156820998D02*
X107000000Y-156706712D01*
X107000000Y-156706712D02*
X106961904Y-156554331D01*
X106961904Y-156554331D02*
X106923809Y-156478140D01*
X106923809Y-156478140D02*
X106847619Y-156401950D01*
X106847619Y-156401950D02*
X106733333Y-156363855D01*
X106733333Y-156363855D02*
X106657142Y-156363855D01*
X106657142Y-156363855D02*
X106542857Y-156401950D01*
X106542857Y-156401950D02*
X106504761Y-156440045D01*
X106009523Y-156363855D02*
X105857142Y-156363855D01*
X105857142Y-156363855D02*
X105780952Y-156401950D01*
X105780952Y-156401950D02*
X105704761Y-156478140D01*
X105704761Y-156478140D02*
X105666666Y-156630521D01*
X105666666Y-156630521D02*
X105666666Y-156897188D01*
X105666666Y-156897188D02*
X105704761Y-157049569D01*
X105704761Y-157049569D02*
X105780952Y-157125760D01*
X105780952Y-157125760D02*
X105857142Y-157163855D01*
X105857142Y-157163855D02*
X106009523Y-157163855D01*
X106009523Y-157163855D02*
X106085714Y-157125760D01*
X106085714Y-157125760D02*
X106161904Y-157049569D01*
X106161904Y-157049569D02*
X106200000Y-156897188D01*
X106200000Y-156897188D02*
X106200000Y-156630521D01*
X106200000Y-156630521D02*
X106161904Y-156478140D01*
X106161904Y-156478140D02*
X106085714Y-156401950D01*
X106085714Y-156401950D02*
X106009523Y-156363855D01*
X105323809Y-157163855D02*
X105323809Y-156363855D01*
X105323809Y-156363855D02*
X104866666Y-157163855D01*
X104866666Y-157163855D02*
X104866666Y-156363855D01*
X104600000Y-156363855D02*
X104142857Y-156363855D01*
X104371429Y-157163855D02*
X104371429Y-156363855D01*
X103876190Y-157163855D02*
X103876190Y-156363855D01*
X103495238Y-157163855D02*
X103495238Y-156363855D01*
X103495238Y-156363855D02*
X103038095Y-157163855D01*
X103038095Y-157163855D02*
X103038095Y-156363855D01*
X102657143Y-156363855D02*
X102657143Y-157011474D01*
X102657143Y-157011474D02*
X102619048Y-157087664D01*
X102619048Y-157087664D02*
X102580953Y-157125760D01*
X102580953Y-157125760D02*
X102504762Y-157163855D01*
X102504762Y-157163855D02*
X102352381Y-157163855D01*
X102352381Y-157163855D02*
X102276191Y-157125760D01*
X102276191Y-157125760D02*
X102238096Y-157087664D01*
X102238096Y-157087664D02*
X102200000Y-157011474D01*
X102200000Y-157011474D02*
X102200000Y-156363855D01*
X101819048Y-157163855D02*
X101819048Y-156363855D01*
X101552382Y-156363855D02*
X101095239Y-156363855D01*
X101323811Y-157163855D02*
X101323811Y-156363855D01*
X100676191Y-156782902D02*
X100676191Y-157163855D01*
X100942858Y-156363855D02*
X100676191Y-156782902D01*
X100676191Y-156782902D02*
X100409525Y-156363855D01*
X99266668Y-156744807D02*
X99152382Y-156782902D01*
X99152382Y-156782902D02*
X99114287Y-156820998D01*
X99114287Y-156820998D02*
X99076191Y-156897188D01*
X99076191Y-156897188D02*
X99076191Y-157011474D01*
X99076191Y-157011474D02*
X99114287Y-157087664D01*
X99114287Y-157087664D02*
X99152382Y-157125760D01*
X99152382Y-157125760D02*
X99228572Y-157163855D01*
X99228572Y-157163855D02*
X99533334Y-157163855D01*
X99533334Y-157163855D02*
X99533334Y-156363855D01*
X99533334Y-156363855D02*
X99266668Y-156363855D01*
X99266668Y-156363855D02*
X99190477Y-156401950D01*
X99190477Y-156401950D02*
X99152382Y-156440045D01*
X99152382Y-156440045D02*
X99114287Y-156516236D01*
X99114287Y-156516236D02*
X99114287Y-156592426D01*
X99114287Y-156592426D02*
X99152382Y-156668617D01*
X99152382Y-156668617D02*
X99190477Y-156706712D01*
X99190477Y-156706712D02*
X99266668Y-156744807D01*
X99266668Y-156744807D02*
X99533334Y-156744807D01*
X98733334Y-156744807D02*
X98466668Y-156744807D01*
X98352382Y-157163855D02*
X98733334Y-157163855D01*
X98733334Y-157163855D02*
X98733334Y-156363855D01*
X98733334Y-156363855D02*
X98352382Y-156363855D01*
X97742858Y-156744807D02*
X98009524Y-156744807D01*
X98009524Y-157163855D02*
X98009524Y-156363855D01*
X98009524Y-156363855D02*
X97628572Y-156363855D01*
X97171429Y-156363855D02*
X97019048Y-156363855D01*
X97019048Y-156363855D02*
X96942858Y-156401950D01*
X96942858Y-156401950D02*
X96866667Y-156478140D01*
X96866667Y-156478140D02*
X96828572Y-156630521D01*
X96828572Y-156630521D02*
X96828572Y-156897188D01*
X96828572Y-156897188D02*
X96866667Y-157049569D01*
X96866667Y-157049569D02*
X96942858Y-157125760D01*
X96942858Y-157125760D02*
X97019048Y-157163855D01*
X97019048Y-157163855D02*
X97171429Y-157163855D01*
X97171429Y-157163855D02*
X97247620Y-157125760D01*
X97247620Y-157125760D02*
X97323810Y-157049569D01*
X97323810Y-157049569D02*
X97361906Y-156897188D01*
X97361906Y-156897188D02*
X97361906Y-156630521D01*
X97361906Y-156630521D02*
X97323810Y-156478140D01*
X97323810Y-156478140D02*
X97247620Y-156401950D01*
X97247620Y-156401950D02*
X97171429Y-156363855D01*
X96028572Y-157163855D02*
X96295239Y-156782902D01*
X96485715Y-157163855D02*
X96485715Y-156363855D01*
X96485715Y-156363855D02*
X96180953Y-156363855D01*
X96180953Y-156363855D02*
X96104763Y-156401950D01*
X96104763Y-156401950D02*
X96066668Y-156440045D01*
X96066668Y-156440045D02*
X96028572Y-156516236D01*
X96028572Y-156516236D02*
X96028572Y-156630521D01*
X96028572Y-156630521D02*
X96066668Y-156706712D01*
X96066668Y-156706712D02*
X96104763Y-156744807D01*
X96104763Y-156744807D02*
X96180953Y-156782902D01*
X96180953Y-156782902D02*
X96485715Y-156782902D01*
X95685715Y-156744807D02*
X95419049Y-156744807D01*
X95304763Y-157163855D02*
X95685715Y-157163855D01*
X95685715Y-157163855D02*
X95685715Y-156363855D01*
X95685715Y-156363855D02*
X95304763Y-156363855D01*
X94352381Y-156744807D02*
X94085715Y-156744807D01*
X93971429Y-157163855D02*
X94352381Y-157163855D01*
X94352381Y-157163855D02*
X94352381Y-156363855D01*
X94352381Y-156363855D02*
X93971429Y-156363855D01*
X93628571Y-157163855D02*
X93628571Y-156363855D01*
X93628571Y-156363855D02*
X93323809Y-156363855D01*
X93323809Y-156363855D02*
X93247619Y-156401950D01*
X93247619Y-156401950D02*
X93209524Y-156440045D01*
X93209524Y-156440045D02*
X93171428Y-156516236D01*
X93171428Y-156516236D02*
X93171428Y-156630521D01*
X93171428Y-156630521D02*
X93209524Y-156706712D01*
X93209524Y-156706712D02*
X93247619Y-156744807D01*
X93247619Y-156744807D02*
X93323809Y-156782902D01*
X93323809Y-156782902D02*
X93628571Y-156782902D01*
X92866667Y-157125760D02*
X92752381Y-157163855D01*
X92752381Y-157163855D02*
X92561905Y-157163855D01*
X92561905Y-157163855D02*
X92485714Y-157125760D01*
X92485714Y-157125760D02*
X92447619Y-157087664D01*
X92447619Y-157087664D02*
X92409524Y-157011474D01*
X92409524Y-157011474D02*
X92409524Y-156935283D01*
X92409524Y-156935283D02*
X92447619Y-156859093D01*
X92447619Y-156859093D02*
X92485714Y-156820998D01*
X92485714Y-156820998D02*
X92561905Y-156782902D01*
X92561905Y-156782902D02*
X92714286Y-156744807D01*
X92714286Y-156744807D02*
X92790476Y-156706712D01*
X92790476Y-156706712D02*
X92828571Y-156668617D01*
X92828571Y-156668617D02*
X92866667Y-156592426D01*
X92866667Y-156592426D02*
X92866667Y-156516236D01*
X92866667Y-156516236D02*
X92828571Y-156440045D01*
X92828571Y-156440045D02*
X92790476Y-156401950D01*
X92790476Y-156401950D02*
X92714286Y-156363855D01*
X92714286Y-156363855D02*
X92523809Y-156363855D01*
X92523809Y-156363855D02*
X92409524Y-156401950D01*
X109447618Y-145563855D02*
X109447618Y-144763855D01*
X109447618Y-144763855D02*
X109142856Y-144763855D01*
X109142856Y-144763855D02*
X109066666Y-144801950D01*
X109066666Y-144801950D02*
X109028571Y-144840045D01*
X109028571Y-144840045D02*
X108990475Y-144916236D01*
X108990475Y-144916236D02*
X108990475Y-145030521D01*
X108990475Y-145030521D02*
X109028571Y-145106712D01*
X109028571Y-145106712D02*
X109066666Y-145144807D01*
X109066666Y-145144807D02*
X109142856Y-145182902D01*
X109142856Y-145182902D02*
X109447618Y-145182902D01*
X108761904Y-144763855D02*
X108495237Y-145563855D01*
X108495237Y-145563855D02*
X108228571Y-144763855D01*
X107961904Y-145259093D02*
X107352381Y-145259093D01*
X102647618Y-145563855D02*
X102647618Y-144763855D01*
X102647618Y-144763855D02*
X102342856Y-144763855D01*
X102342856Y-144763855D02*
X102266666Y-144801950D01*
X102266666Y-144801950D02*
X102228571Y-144840045D01*
X102228571Y-144840045D02*
X102190475Y-144916236D01*
X102190475Y-144916236D02*
X102190475Y-145030521D01*
X102190475Y-145030521D02*
X102228571Y-145106712D01*
X102228571Y-145106712D02*
X102266666Y-145144807D01*
X102266666Y-145144807D02*
X102342856Y-145182902D01*
X102342856Y-145182902D02*
X102647618Y-145182902D01*
X101961904Y-144763855D02*
X101695237Y-145563855D01*
X101695237Y-145563855D02*
X101428571Y-144763855D01*
X101161904Y-145259093D02*
X100552381Y-145259093D01*
X100857142Y-145563855D02*
X100857142Y-144954331D01*
X105266666Y-144363855D02*
X105266666Y-144935283D01*
X105266666Y-144935283D02*
X105304761Y-145049569D01*
X105304761Y-145049569D02*
X105380952Y-145125760D01*
X105380952Y-145125760D02*
X105495237Y-145163855D01*
X105495237Y-145163855D02*
X105571428Y-145163855D01*
X104466666Y-145163855D02*
X104923809Y-145163855D01*
X104695237Y-145163855D02*
X104695237Y-144363855D01*
X104695237Y-144363855D02*
X104771428Y-144478140D01*
X104771428Y-144478140D02*
X104847618Y-144554331D01*
X104847618Y-144554331D02*
X104923809Y-144592426D01*
%TO.C,J1*%
X100050000Y-148850000D02*
G75*
G02*
X99650000Y-148850000I-200000J0D01*
G01*
X99650000Y-148850000D02*
G75*
G02*
X100050000Y-148850000I200000J0D01*
G01*
%TD*%
M02*
