%TF.GenerationSoftware,KiCad,Pcbnew,10.0.3*%
%TF.CreationDate,2026-05-28T18:34:06+01:00*%
%TF.ProjectId,ICARUS_1U_Solar_Panel_PCB_v0p7,49434152-5553-45f3-9155-5f536f6c6172,0.7*%
%TF.SameCoordinates,Original*%
%TF.FileFunction,Copper,L1,Top*%
%TF.FilePolarity,Positive*%
%FSLAX46Y46*%
G04 Gerber Fmt 4.6, Leading zero omitted, Abs format (unit mm)*
G04 Created by KiCad (PCBNEW 10.0.3) date 2026-05-28 18:34:06*
%MOMM*%
%LPD*%
G01*
G04 APERTURE LIST*
G04 Aperture macros list*
%AMRoundRect*
0 Rectangle with rounded corners*
0 $1 Rounding radius*
0 $2 $3 $4 $5 $6 $7 $8 $9 X,Y pos of 4 corners*
0 Add a 4 corners polygon primitive as box body*
4,1,4,$2,$3,$4,$5,$6,$7,$8,$9,$2,$3,0*
0 Add four circle primitives for the rounded corners*
1,1,$1+$1,$2,$3*
1,1,$1+$1,$4,$5*
1,1,$1+$1,$6,$7*
1,1,$1+$1,$8,$9*
0 Add four rect primitives between the rounded corners*
20,1,$1+$1,$2,$3,$4,$5,0*
20,1,$1+$1,$4,$5,$6,$7,0*
20,1,$1+$1,$6,$7,$8,$9,0*
20,1,$1+$1,$8,$9,$2,$3,0*%
G04 Aperture macros list end*
%TA.AperFunction,SMDPad,CuDef*%
%ADD10RoundRect,0.450000X-2.050000X-1.050000X2.050000X-1.050000X2.050000X1.050000X-2.050000X1.050000X0*%
%TD*%
%TA.AperFunction,SMDPad,CuDef*%
%ADD11RoundRect,0.960000X-3.040000X-3.040000X3.040000X-3.040000X3.040000X3.040000X-3.040000X3.040000X0*%
%TD*%
%TA.AperFunction,SMDPad,CuDef*%
%ADD12RoundRect,0.450000X2.050000X1.050000X-2.050000X1.050000X-2.050000X-1.050000X2.050000X-1.050000X0*%
%TD*%
%TA.AperFunction,SMDPad,CuDef*%
%ADD13RoundRect,0.960000X3.040000X3.040000X-3.040000X3.040000X-3.040000X-3.040000X3.040000X-3.040000X0*%
%TD*%
%TA.AperFunction,SMDPad,CuDef*%
%ADD14C,2.000000*%
%TD*%
%TA.AperFunction,SMDPad,CuDef*%
%ADD15C,2.500000*%
%TD*%
%TA.AperFunction,ViaPad*%
%ADD16C,1.000000*%
%TD*%
%TA.AperFunction,Conductor*%
%ADD17C,1.000000*%
%TD*%
%TA.AperFunction,Conductor*%
%ADD18C,0.800000*%
%TD*%
G04 APERTURE END LIST*
D10*
%TO.P,SC1,1*%
%TO.N,PANEL_NEG*%
X73500000Y-62425000D03*
X94500000Y-62425000D03*
X115500000Y-62425000D03*
X136500000Y-62425000D03*
D11*
%TO.P,SC1,2*%
%TO.N,PANEL_POS*%
X79000000Y-84425000D03*
X105000000Y-84425000D03*
X131000000Y-84425000D03*
%TD*%
D12*
%TO.P,SC2,1*%
%TO.N,PANEL_NEG*%
X136500000Y-147575000D03*
X115500000Y-147575000D03*
X94500000Y-147575000D03*
X73500000Y-147575000D03*
D13*
%TO.P,SC2,2*%
%TO.N,PANEL_POS*%
X131000000Y-125575000D03*
X105000000Y-125575000D03*
X79000000Y-125575000D03*
%TD*%
D14*
%TO.P,TP1,1*%
%TO.N,PANEL_NEG*%
X60500000Y-84000000D03*
%TD*%
%TO.P,TP3,1*%
%TO.N,PANEL_POS*%
X60500000Y-126000000D03*
%TD*%
D15*
%TO.P,TP4,1*%
%TO.N,PANEL_NEG*%
X149500000Y-84000000D03*
%TD*%
%TO.P,TP5,1*%
%TO.N,PANEL_POS*%
X60500000Y-137000000D03*
%TD*%
D16*
%TO.N,PANEL_NEG*%
X70000000Y-62425000D03*
X70000000Y-147575000D03*
%TO.N,PANEL_POS*%
X137000000Y-84425000D03*
X137000000Y-125575000D03*
%TD*%
%TO.N,PANEL_NEG*%
D17*
X73500000Y-62425000D02*
X136500000Y-62425000D01*
X73500000Y-147575000D02*
X136500000Y-147575000D01*
D18*
X70000000Y-62425000D02*
X73500000Y-62425000D01*
X70000000Y-147575000D02*
X73500000Y-147575000D01*
X60500000Y-84000000D02*
X60500000Y-70000000D01*
X60500000Y-70000000D02*
X73500000Y-70000000D01*
X73500000Y-70000000D02*
X73500000Y-62425000D01*
X149500000Y-84000000D02*
X149500000Y-70000000D01*
X149500000Y-70000000D02*
X136500000Y-70000000D01*
X136500000Y-70000000D02*
X136500000Y-62425000D01*
%TO.N,PANEL_POS*%
D17*
X79000000Y-84425000D02*
X131000000Y-84425000D01*
X79000000Y-125575000D02*
X131000000Y-125575000D01*
D18*
X131000000Y-84425000D02*
X137000000Y-84425000D01*
X131000000Y-125575000D02*
X137000000Y-125575000D01*
X60500000Y-126000000D02*
X78000000Y-126000000D01*
X78000000Y-126000000D02*
X78000000Y-125575000D01*
X78000000Y-125575000D02*
X79000000Y-125575000D01*
X60500000Y-137000000D02*
X78000000Y-137000000D01*
X78000000Y-137000000D02*
X78000000Y-129575000D01*
%TD*%
M02*
